<svg xmlns="http://www.w3.org/2000/svg" viewBox="0 0 800 400" fill="none">
  <defs>
    <linearGradient id="bg" x1="0" y1="0" x2="800" y2="400" gradientUnits="userSpaceOnUse">
      <stop offset="0%" stop-color="#FFF8F0"/>
      <stop offset="100%" stop-color="#FFF0E0"/>
    </linearGradient>
  </defs>
  <rect width="800" height="400" rx="12" fill="url(#bg)"/>
  <!-- Top nav -->
  <rect x="0" y="0" width="800" height="48" rx="12" fill="#E8713A"/>
  <rect x="0" y="12" width="800" height="36" fill="#E8713A"/>
  <rect x="24" y="16" width="100" height="16" rx="3" fill="rgba(255,255,255,0.9)"/>
  <rect x="180" y="20" width="50" height="8" rx="2" fill="rgba(255,255,255,0.5)"/>
  <rect x="244" y="20" width="50" height="8" rx="2" fill="rgba(255,255,255,0.5)"/>
  <rect x="680" y="14" width="90" height="20" rx="4" fill="rgba(255,255,255,0.2)"/>
  <!-- Sidebar -->
  <rect x="0" y="48" width="60" height="352" fill="white" stroke="#eee" stroke-width="1"/>
  <rect x="14" y="68" width="32" height="32" rx="8" fill="#E8713A" opacity="0.2"/>
  <rect x="14" y="112" width="32" height="32" rx="8" fill="#f0f0f0"/>
  <rect x="14" y="156" width="32" height="32" rx="8" fill="#f0f0f0"/>
  <rect x="14" y="200" width="32" height="32" rx="8" fill="#f0f0f0"/>
  <!-- Main dashboard -->
  <rect x="80" y="64" width="180" height="14" rx="4" fill="#333"/>
  <rect x="80" y="86" width="250" height="8" rx="2" fill="#999"/>
  <!-- Therapist cards -->
  <rect x="80" y="110" width="210" height="120" rx="8" fill="white" stroke="#eee" stroke-width="1"/>
  <circle cx="120" cy="150" r="24" fill="#E8713A" opacity="0.2"/>
  <rect x="156" y="134" width="100" height="10" rx="3" fill="#333"/>
  <rect x="156" y="152" width="120" height="6" rx="2" fill="#E8713A" opacity="0.6"/>
  <rect x="156" y="166" width="80" height="6" rx="2" fill="#999"/>
  <rect x="96" y="196" width="170" height="20" rx="4" fill="#E8713A"/>
  <rect x="310" y="110" width="210" height="120" rx="8" fill="white" stroke="#E8713A" stroke-width="2"/>
  <circle cx="350" cy="150" r="24" fill="#E8713A" opacity="0.2"/>
  <rect x="386" y="134" width="100" height="10" rx="3" fill="#333"/>
  <rect x="386" y="152" width="120" height="6" rx="2" fill="#E8713A" opacity="0.6"/>
  <rect x="386" y="166" width="80" height="6" rx="2" fill="#999"/>
  <rect x="326" y="196" width="170" height="20" rx="4" fill="#E8713A"/>
  <rect x="540" y="110" width="210" height="120" rx="8" fill="white" stroke="#eee" stroke-width="1"/>
  <circle cx="580" cy="150" r="24" fill="#E8713A" opacity="0.2"/>
  <rect x="616" y="134" width="100" height="10" rx="3" fill="#333"/>
  <rect x="616" y="152" width="120" height="6" rx="2" fill="#E8713A" opacity="0.6"/>
  <rect x="616" y="166" width="80" height="6" rx="2" fill="#999"/>
  <rect x="556" y="196" width="170" height="20" rx="4" fill="#E8713A"/>
  <!-- Session tracker -->
  <rect x="80" y="250" width="440" height="130" rx="8" fill="white" stroke="#eee" stroke-width="1"/>
  <rect x="100" y="270" width="120" height="10" rx="3" fill="#333"/>
  <rect x="100" y="295" width="400" height="1" fill="#eee"/>
  <!-- Mini calendar -->
  <rect x="110" y="310" width="30" height="30" rx="4" fill="#E8713A" opacity="0.1"/>
  <rect x="150" y="310" width="30" height="30" rx="4" fill="#E8713A" opacity="0.1"/>
  <rect x="190" y="310" width="30" height="30" rx="4" fill="#E8713A"/>
  <rect x="230" y="310" width="30" height="30" rx="4" fill="#E8713A" opacity="0.1"/>
  <rect x="270" y="310" width="30" height="30" rx="4" fill="#E8713A" opacity="0.1"/>
  <rect x="310" y="310" width="30" height="30" rx="4" fill="#f0f0f0"/>
  <rect x="350" y="310" width="30" height="30" rx="4" fill="#f0f0f0"/>
  <rect x="100" y="354" width="150" height="8" rx="2" fill="#999"/>
  <!-- Right panel -->
  <rect x="540" y="250" width="220" height="130" rx="8" fill="white" stroke="#eee" stroke-width="1"/>
  <rect x="560" y="270" width="80" height="10" rx="3" fill="#333"/>
  <rect x="560" y="296" width="180" height="8" rx="2" fill="#4ade80" opacity="0.4"/>
  <rect x="560" y="316" width="180" height="8" rx="2" fill="#4ade80" opacity="0.4"/>
  <rect x="560" y="336" width="180" height="8" rx="2" fill="#E8713A" opacity="0.3"/>
  <rect x="560" y="356" width="180" height="8" rx="2" fill="#4ade80" opacity="0.4"/>
</svg>