<svg xmlns="http://www.w3.org/2000/svg" viewBox="0 0 800 400" fill="none">
  <defs>
    <linearGradient id="bg" x1="0" y1="0" x2="800" y2="400" gradientUnits="userSpaceOnUse">
      <stop offset="0%" stop-color="#F5F0FF"/>
      <stop offset="100%" stop-color="#EDE5FF"/>
    </linearGradient>
  </defs>
  <rect width="800" height="400" rx="12" fill="url(#bg)"/>
  <!-- Top nav -->
  <rect x="0" y="0" width="800" height="48" rx="12" fill="#5B21B6"/>
  <rect x="0" y="12" width="800" height="36" fill="#5B21B6"/>
  <rect x="24" y="16" width="90" height="16" rx="3" fill="rgba(255,255,255,0.9)"/>
  <rect x="160" y="20" width="50" height="8" rx="2" fill="rgba(255,255,255,0.5)"/>
  <rect x="224" y="20" width="60" height="8" rx="2" fill="rgba(255,255,255,0.5)"/>
  <rect x="298" y="20" width="50" height="8" rx="2" fill="rgba(255,255,255,0.5)"/>
  <rect x="680" y="14" width="90" height="20" rx="4" fill="#7C3AED"/>
  <!-- Sidebar -->
  <rect x="0" y="48" width="200" height="352" fill="white"/>
  <rect x="20" y="68" width="160" height="14" rx="3" fill="#5B21B6"/>
  <rect x="20" y="100" width="160" height="32" rx="6" fill="#5B21B6" opacity="0.08"/>
  <rect x="40" y="110" width="80" height="8" rx="2" fill="#5B21B6"/>
  <rect x="20" y="144" width="160" height="32" rx="6" fill="transparent"/>
  <rect x="40" y="154" width="100" height="8" rx="2" fill="#888"/>
  <rect x="20" y="188" width="160" height="32" rx="6" fill="transparent"/>
  <rect x="40" y="198" width="90" height="8" rx="2" fill="#888"/>
  <rect x="20" y="232" width="160" height="32" rx="6" fill="transparent"/>
  <rect x="40" y="242" width="70" height="8" rx="2" fill="#888"/>
  <rect x="20" y="300" width="160" height="10" rx="3" fill="#aaa"/>
  <rect x="20" y="324" width="160" height="32" rx="6" fill="transparent"/>
  <rect x="40" y="334" width="110" height="8" rx="2" fill="#888"/>
  <!-- Main content -->
  <rect x="220" y="64" width="200" height="16" rx="4" fill="#333"/>
  <rect x="220" y="88" width="300" height="8" rx="2" fill="#999"/>
  <!-- Treatment plan card -->
  <rect x="220" y="114" width="340" height="140" rx="8" fill="white" stroke="#e0e0e0" stroke-width="1"/>
  <rect x="240" y="134" width="120" height="10" rx="3" fill="#5B21B6"/>
  <rect x="240" y="158" width="300" height="1" fill="#eee"/>
  <rect x="240" y="172" width="200" height="8" rx="2" fill="#666"/>
  <rect x="240" y="192" width="280" height="8" rx="2" fill="#999"/>
  <rect x="240" y="212" width="250" height="8" rx="2" fill="#999"/>
  <rect x="240" y="232" width="100" height="10" rx="3" fill="#5B21B6" opacity="0.6"/>
  <!-- Medication card -->
  <rect x="580" y="114" width="190" height="140" rx="8" fill="white" stroke="#e0e0e0" stroke-width="1"/>
  <rect x="600" y="134" width="80" height="10" rx="3" fill="#5B21B6"/>
  <rect x="600" y="158" width="150" height="1" fill="#eee"/>
  <circle cx="630" cy="190" r="20" fill="#5B21B6" opacity="0.1" stroke="#5B21B6" stroke-width="1.5"/>
  <rect x="660" y="180" width="90" height="8" rx="2" fill="#666"/>
  <rect x="660" y="196" width="70" height="6" rx="2" fill="#999"/>
  <rect x="600" y="226" width="150" height="16" rx="4" fill="#7C3AED"/>
  <!-- Progress section -->
  <rect x="220" y="274" width="550" height="106" rx="8" fill="white" stroke="#e0e0e0" stroke-width="1"/>
  <rect x="240" y="294" width="100" height="10" rx="3" fill="#333"/>
  <rect x="240" y="318" width="510" height="1" fill="#eee"/>
  <!-- Progress bars -->
  <rect x="240" y="332" width="80" height="8" rx="2" fill="#888"/>
  <rect x="340" y="332" width="200" height="8" rx="4" fill="#eee"/>
  <rect x="340" y="332" width="150" height="8" rx="4" fill="#5B21B6"/>
  <rect x="240" y="352" width="80" height="8" rx="2" fill="#888"/>
  <rect x="340" y="352" width="200" height="8" rx="4" fill="#eee"/>
  <rect x="340" y="352" width="170" height="8" rx="4" fill="#7C3AED"/>
</svg>