<svg xmlns="http://www.w3.org/2000/svg" viewBox="0 0 800 400" fill="none">
  <defs>
    <linearGradient id="bg" x1="0" y1="0" x2="800" y2="400" gradientUnits="userSpaceOnUse">
      <stop offset="0%" stop-color="#1a1040"/>
      <stop offset="100%" stop-color="#2d1b69"/>
    </linearGradient>
  </defs>
  <rect width="800" height="400" rx="12" fill="url(#bg)"/>
  <!-- Top nav -->
  <rect x="0" y="0" width="800" height="48" rx="12" fill="#120a30"/>
  <rect x="0" y="12" width="800" height="36" fill="#120a30"/>
  <rect x="24" y="16" width="90" height="16" rx="3" fill="#673DE6"/>
  <rect x="160" y="20" width="50" height="8" rx="2" fill="#555"/>
  <rect x="224" y="20" width="60" height="8" rx="2" fill="#555"/>
  <rect x="298" y="20" width="50" height="8" rx="2" fill="#555"/>
  <rect x="680" y="14" width="90" height="20" rx="4" fill="#673DE6"/>
  <!-- Sidebar -->
  <rect x="0" y="48" width="60" height="352" fill="#120a30"/>
  <rect x="14" y="68" width="32" height="32" rx="8" fill="#673DE6" opacity="0.3"/>
  <rect x="14" y="112" width="32" height="32" rx="8" fill="#1e1450"/>
  <rect x="14" y="156" width="32" height="32" rx="8" fill="#1e1450"/>
  <rect x="14" y="200" width="32" height="32" rx="8" fill="#1e1450"/>
  <rect x="14" y="244" width="32" height="32" rx="8" fill="#1e1450"/>
  <!-- Dashboard header -->
  <rect x="80" y="64" width="180" height="16" rx="4" fill="#eee"/>
  <rect x="80" y="88" width="280" height="8" rx="2" fill="#888"/>
  <!-- Template cards -->
  <rect x="80" y="114" width="200" height="140" rx="8" fill="#1e1450" stroke="#673DE6" stroke-width="1"/>
  <rect x="96" y="130" width="168" height="80" rx="6" fill="#673DE6" opacity="0.15"/>
  <rect x="116" y="150" width="128" height="40" rx="4" fill="#673DE6" opacity="0.2"/>
  <rect x="96" y="224" width="100" height="8" rx="2" fill="#ddd"/>
  <rect x="96" y="240" width="60" height="6" rx="2" fill="#888"/>
  <rect x="300" y="114" width="200" height="140" rx="8" fill="#1e1450"/>
  <rect x="316" y="130" width="168" height="80" rx="6" fill="#673DE6" opacity="0.1"/>
  <rect x="336" y="150" width="128" height="40" rx="4" fill="#673DE6" opacity="0.15"/>
  <rect x="316" y="224" width="100" height="8" rx="2" fill="#ddd"/>
  <rect x="316" y="240" width="60" height="6" rx="2" fill="#888"/>
  <rect x="520" y="114" width="200" height="140" rx="8" fill="#1e1450"/>
  <rect x="536" y="130" width="168" height="80" rx="6" fill="#673DE6" opacity="0.1"/>
  <rect x="556" y="150" width="128" height="40" rx="4" fill="#673DE6" opacity="0.15"/>
  <rect x="536" y="224" width="100" height="8" rx="2" fill="#ddd"/>
  <rect x="536" y="240" width="60" height="6" rx="2" fill="#888"/>
  <!-- Bottom section -->
  <rect x="80" y="274" width="640" height="106" rx="8" fill="#1e1450"/>
  <rect x="100" y="294" width="120" height="12" rx="3" fill="#eee"/>
  <rect x="100" y="318" width="600" height="1" fill="#2d2060"/>
  <!-- AI builder elements -->
  <rect x="100" y="332" width="180" height="32" rx="6" fill="#673DE6" opacity="0.2" stroke="#673DE6" stroke-width="1"/>
  <rect x="120" y="342" width="100" height="10" rx="3" fill="#673DE6"/>
  <rect x="300" y="332" width="180" height="32" rx="6" fill="#673DE6" opacity="0.1"/>
  <rect x="320" y="342" width="100" height="10" rx="3" fill="#888"/>
  <rect x="500" y="332" width="180" height="32" rx="6" fill="#673DE6" opacity="0.1"/>
  <rect x="520" y="342" width="100" height="10" rx="3" fill="#888"/>
</svg>