<svg width="379" height="433" viewBox="0 0 379 433" fill="none" xmlns="http://www.w3.org/2000/svg">
<g clip-path="url(#clip0_1592_44849)">
<g filter="url(#filter0_d_1592_44849)">
<rect x="0.268066" width="378.637" height="788.668" rx="55.1782" fill="#191C1F"/>
</g>
<g clip-path="url(#clip1_1592_44849)">
<rect x="14.9995" y="15.3589" width="349.173" height="759.468" rx="37.6129" fill="#F7F6F5"/>
<rect x="14.9995" y="15.3589" width="349.274" height="372.559" fill="url(#paint0_linear_1592_44849)"/>
<g clip-path="url(#clip2_1592_44849)">
<circle opacity="0.5" cx="54.4141" cy="160.062" r="10.7111" stroke="#417D86" stroke-width="0.931397"/>
<circle opacity="0.1" cx="54.4141" cy="160.062" r="11.1768" fill="#417D86"/>
<circle cx="54.4128" cy="160.062" r="2.79419" fill="#417D86"/>
</g>
<path d="M84.7281 165.062V154.561H83.2073L79.6127 163.322H79.4963L75.9017 154.561H74.3809V165.062H75.6033V157.043H75.6907L79.0015 165.062H80.1075L83.4183 157.043H83.5057V165.062H84.7281ZM90.4693 165.2C92.7032 165.2 94.0857 163.657 94.0857 161.139C94.0857 158.615 92.7032 157.079 90.4693 157.079C88.2354 157.079 86.8529 158.615 86.8529 161.139C86.8529 163.657 88.2354 165.2 90.4693 165.2ZM90.4693 164.072C88.9849 164.072 88.1481 162.995 88.1481 161.139C88.1481 159.277 88.9849 158.207 90.4693 158.207C91.9537 158.207 92.7905 159.277 92.7905 161.139C92.7905 162.995 91.9537 164.072 90.4693 164.072ZM96.0504 165.062H97.302V160.419C97.302 159.044 98.1097 158.207 99.3612 158.207C100.613 158.207 101.209 158.876 101.209 160.288V165.062H102.461V159.982C102.461 158.12 101.479 157.079 99.7178 157.079C98.5172 157.079 97.7531 157.589 97.3602 158.454H97.2438V157.217H96.0504V165.062ZM105.408 155.704C105.888 155.704 106.281 155.311 106.281 154.831C106.281 154.35 105.888 153.958 105.408 153.958C104.928 153.958 104.535 154.35 104.535 154.831C104.535 155.311 104.928 155.704 105.408 155.704ZM104.782 165.062H106.034V157.217H104.782V165.062ZM108.944 155.187V157.217H107.678V158.265H108.944V163.024C108.944 164.523 109.592 165.12 111.207 165.12C111.455 165.12 111.695 165.091 111.942 165.047V163.992C111.71 164.014 111.586 164.021 111.36 164.021C110.545 164.021 110.196 163.628 110.196 162.704V158.265H111.942V157.217H110.196V155.187H108.944ZM116.941 165.2C119.175 165.2 120.558 163.657 120.558 161.139C120.558 158.615 119.175 157.079 116.941 157.079C114.707 157.079 113.325 158.615 113.325 161.139C113.325 163.657 114.707 165.2 116.941 165.2ZM116.941 164.072C115.457 164.072 114.62 162.995 114.62 161.139C114.62 159.277 115.457 158.207 116.941 158.207C118.426 158.207 119.263 159.277 119.263 161.139C119.263 162.995 118.426 164.072 116.941 164.072ZM122.522 165.062H123.774V160.201C123.774 159.095 124.64 158.294 125.833 158.294C126.081 158.294 126.532 158.338 126.634 158.367V157.116C126.474 157.094 126.212 157.079 126.008 157.079C124.967 157.079 124.065 157.618 123.832 158.382H123.716V157.217H122.522V165.062ZM128.853 155.704C129.333 155.704 129.726 155.311 129.726 154.831C129.726 154.35 129.333 153.958 128.853 153.958C128.373 153.958 127.98 154.35 127.98 154.831C127.98 155.311 128.373 155.704 128.853 155.704ZM128.227 165.062H129.479V157.217H128.227V165.062ZM131.866 165.062H133.117V160.419C133.117 159.044 133.925 158.207 135.176 158.207C136.428 158.207 137.025 158.876 137.025 160.288V165.062H138.276V159.982C138.276 158.12 137.294 157.079 135.533 157.079C134.332 157.079 133.568 157.589 133.175 158.454H133.059V157.217H131.866V165.062ZM143.799 168.074C145.938 168.074 147.292 166.953 147.292 165.2V157.217H146.098V158.462H145.982C145.531 157.618 144.563 157.079 143.464 157.079C141.449 157.079 140.175 158.673 140.175 161.023C140.175 163.373 141.434 164.945 143.464 164.945C144.541 164.945 145.429 164.458 145.924 163.592H146.04V165.134C146.04 166.291 145.203 166.983 143.799 166.983C142.671 166.983 141.973 166.568 141.834 165.927H140.51C140.699 167.223 141.907 168.074 143.799 168.074ZM143.741 163.839C142.286 163.839 141.471 162.733 141.471 161.023C141.471 159.313 142.286 158.207 143.741 158.207C145.189 158.207 146.069 159.313 146.069 161.023C146.069 162.733 145.196 163.839 143.741 163.839ZM154.51 155.704C154.99 155.704 155.383 155.311 155.383 154.831C155.383 154.35 154.99 153.958 154.51 153.958C154.03 153.958 153.637 154.35 153.637 154.831C153.637 155.311 154.03 155.704 154.51 155.704ZM153.884 165.062H155.136V157.217H153.884V165.062ZM157.341 159.364C157.341 160.499 158.01 161.132 159.48 161.489L160.826 161.816C161.663 162.02 162.07 162.384 162.07 162.922C162.07 163.643 161.314 164.145 160.259 164.145C159.254 164.145 158.629 163.723 158.418 163.06H157.13C157.268 164.363 158.469 165.2 160.215 165.2C161.998 165.2 163.358 164.232 163.358 162.828C163.358 161.7 162.645 161.059 161.168 160.703L159.96 160.412C159.036 160.186 158.6 159.852 158.6 159.313C158.6 158.615 159.327 158.142 160.259 158.142C161.205 158.142 161.816 158.556 161.983 159.182H163.22C163.053 157.894 161.91 157.079 160.266 157.079C158.6 157.079 157.341 158.061 157.341 159.364ZM171.712 165.2C172.76 165.2 173.618 164.741 174.128 163.905H174.244V165.062H175.437V159.691C175.437 158.061 174.368 157.079 172.454 157.079C170.78 157.079 169.543 157.909 169.376 159.168H170.642C170.817 158.549 171.472 158.192 172.41 158.192C173.582 158.192 174.186 158.724 174.186 159.691V160.405L171.923 160.543C170.096 160.652 169.063 161.46 169.063 162.864C169.063 164.297 170.191 165.2 171.712 165.2ZM171.945 164.101C171.035 164.101 170.358 163.635 170.358 162.835C170.358 162.049 170.882 161.634 172.076 161.554L174.186 161.416V162.136C174.186 163.257 173.233 164.101 171.945 164.101ZM184.242 159.619C184.024 158.222 182.86 157.079 180.953 157.079C178.756 157.079 177.358 158.665 177.358 161.11C177.358 163.606 178.763 165.2 180.96 165.2C182.845 165.2 184.016 164.137 184.242 162.697H182.976C182.743 163.584 182.008 164.072 180.953 164.072C179.556 164.072 178.654 162.922 178.654 161.11C178.654 159.335 179.541 158.207 180.953 158.207C182.081 158.207 182.772 158.84 182.976 159.619H184.242ZM186.76 155.187V157.217H185.494V158.265H186.76V163.024C186.76 164.523 187.407 165.12 189.023 165.12C189.27 165.12 189.51 165.091 189.758 165.047V163.992C189.525 164.014 189.401 164.021 189.176 164.021C188.361 164.021 188.011 163.628 188.011 162.704V158.265H189.758V157.217H188.011V155.187H186.76ZM192.304 155.704C192.785 155.704 193.178 155.311 193.178 154.831C193.178 154.35 192.785 153.958 192.304 153.958C191.824 153.958 191.431 154.35 191.431 154.831C191.431 155.311 191.824 155.704 192.304 155.704ZM191.679 165.062H192.93V157.217H191.679V165.062ZM201.72 157.217H200.381L198.235 163.679H198.118L195.972 157.217H194.633L197.536 165.062H198.817L201.72 157.217ZM208.298 163.031C207.971 163.723 207.287 164.094 206.275 164.094C204.944 164.094 204.078 163.111 204.012 161.562V161.503H209.652V161.023C209.652 158.585 208.364 157.079 206.246 157.079C204.092 157.079 202.71 158.68 202.71 161.147C202.71 163.628 204.071 165.2 206.246 165.2C207.964 165.2 209.186 164.37 209.55 163.031H208.298ZM206.232 158.185C207.476 158.185 208.306 159.102 208.335 160.492H204.012C204.107 159.102 204.98 158.185 206.232 158.185Z" fill="#191C1F"/>
<path d="M62.7966 218.866V197.866H59.0565V206.598H48.8402V197.866H45.0855V218.866H48.8402V209.756H59.0565V218.866H62.7966ZM68.0357 201.111C69.1418 201.111 70.015 200.224 70.015 199.147C70.015 198.055 69.1418 197.182 68.0357 197.182C66.9297 197.182 66.042 198.055 66.042 199.147C66.042 200.224 66.9297 201.111 68.0357 201.111ZM66.2312 218.866H69.8549V203.44H66.2312V218.866ZM92.9506 218.866H96.9091L89.4579 197.866H85.2229L77.7718 218.866H81.6429L83.4329 213.438H91.1606L92.9506 218.866ZM87.2458 201.577H87.3477L90.2728 210.542H84.3061L87.2458 201.577ZM98.9028 218.866H102.527V197.866H98.9028V218.866ZM115.828 214.253C115.435 215.534 114.154 216.378 112.466 216.378C110.094 216.378 108.581 214.719 108.581 212.245V212.026H119.364V210.847C119.364 206.161 116.628 203.12 112.248 203.12C107.795 203.12 104.971 206.336 104.971 211.211C104.971 216.13 107.766 219.172 112.394 219.172C116.046 219.172 118.753 217.164 119.219 214.253H115.828ZM112.263 205.929C114.344 205.929 115.741 207.457 115.813 209.64H108.61C108.755 207.486 110.225 205.929 112.263 205.929ZM127.471 213.336L130.672 218.866H134.631L129.726 211.066L134.689 203.44H130.716L127.645 208.854H127.572L124.458 203.44H120.383L125.317 211.168L120.34 218.866H124.196L127.398 213.336H127.471ZM139.157 223.305L141.121 215.403H137.585L136.377 223.305H139.157ZM150.624 224.6C154.146 224.6 155.849 223.305 157.159 219.477L162.747 203.44H158.934L155.296 215.781H155.223L151.6 203.44H147.641L153.128 218.881C153.142 218.924 152.909 219.696 152.909 219.739C152.516 221.166 151.745 221.733 150.246 221.733C150.028 221.733 149.387 221.719 149.198 221.675V224.542C149.387 224.586 150.406 224.6 150.624 224.6ZM170.853 219.172C175.379 219.172 178.319 216.159 178.319 211.153C178.319 206.161 175.35 203.12 170.853 203.12C166.356 203.12 163.388 206.176 163.388 211.153C163.388 216.159 166.327 219.172 170.853 219.172ZM170.853 216.305C168.554 216.305 167.069 214.442 167.069 211.153C167.069 207.879 168.568 206.001 170.853 206.001C173.153 206.001 174.637 207.879 174.637 211.153C174.637 214.442 173.153 216.305 170.853 216.305ZM194.327 203.44H190.704V212.361C190.704 214.602 189.408 216.087 187.313 216.087C185.275 216.087 184.198 214.893 184.198 212.681V203.44H180.575V213.409C180.575 216.974 182.699 219.143 186.047 219.143C188.39 219.143 189.947 218.066 190.762 216.188H190.835V218.866H194.327V203.44ZM200.352 205.768L202.404 197.866H198.853L197.558 205.768H200.352ZM218.937 203.44H215.153L211.573 215.504H211.5L207.92 203.44H204.049L209.521 218.866H213.508L218.937 203.44ZM230.39 214.253C229.997 215.534 228.716 216.378 227.028 216.378C224.656 216.378 223.142 214.719 223.142 212.245V212.026H233.926V210.847C233.926 206.161 231.19 203.12 226.81 203.12C222.357 203.12 219.533 206.336 219.533 211.211C219.533 216.13 222.327 219.172 226.955 219.172C230.608 219.172 233.315 217.164 233.781 214.253H230.39ZM226.824 205.929C228.905 205.929 230.303 207.457 230.375 209.64H223.172C223.317 207.486 224.787 205.929 226.824 205.929ZM249.032 224.687C253.529 224.687 256.484 222.301 256.484 218.619V203.44H252.933V206.089H252.874C251.987 204.313 250.211 203.178 248.014 203.178C244.07 203.178 241.596 206.22 241.596 211.095C241.596 215.897 244.128 218.881 247.941 218.881C250.153 218.881 251.972 217.775 252.773 216.116H252.86V218.721C252.86 220.685 251.506 222.01 249.149 222.01C247.432 222.01 246.107 221.209 245.714 220.03H242.12C242.483 222.737 245.219 224.687 249.032 224.687ZM249.047 215.999C246.762 215.999 245.307 214.166 245.307 211.109C245.307 208.082 246.762 206.161 249.047 206.161C251.361 206.161 252.86 208.111 252.86 211.109C252.86 214.122 251.361 215.999 249.047 215.999ZM266.263 219.172C270.789 219.172 273.729 216.159 273.729 211.153C273.729 206.161 270.76 203.12 266.263 203.12C261.766 203.12 258.797 206.176 258.797 211.153C258.797 216.159 261.737 219.172 266.263 219.172ZM266.263 216.305C263.964 216.305 262.479 214.442 262.479 211.153C262.479 207.879 263.978 206.001 266.263 206.001C268.563 206.001 270.047 207.879 270.047 211.153C270.047 214.442 268.563 216.305 266.263 216.305ZM277.062 199.831V203.44H274.85V206.234H277.062V214.762C277.062 217.76 278.371 218.939 281.704 218.939C282.475 218.939 283.188 218.881 283.581 218.793V216.028C283.349 216.072 282.883 216.101 282.548 216.101C281.267 216.101 280.685 215.519 280.685 214.253V206.234H283.596V203.44H280.685V199.831H277.062ZM297.407 218.866H301.089V197.866H297.378L291.891 201.723V205.172L297.319 201.446H297.407V218.866ZM313.779 219.288C318.436 219.288 321.667 216.29 321.667 211.939C321.667 207.937 318.785 205.026 314.783 205.026C312.673 205.026 310.941 205.856 310.024 207.267H309.952L310.534 200.937H320.43V197.866H307.536L306.532 210.076H309.806C310.606 208.65 312.018 207.85 313.823 207.85C316.297 207.85 318.043 209.581 318.043 212.041C318.043 214.515 316.311 216.247 313.808 216.247C311.596 216.247 309.908 214.922 309.675 212.958H306.153C306.313 216.683 309.457 219.288 313.779 219.288ZM44.7217 254.866H48.3454V245.931C48.3454 243.719 49.6698 242.22 51.7509 242.22C53.8174 242.22 54.8361 243.442 54.8361 245.625V254.866H58.4598V244.897C58.4598 241.332 56.5243 239.149 53.1188 239.149C50.7467 239.149 49.1022 240.255 48.2727 242.089H48.1999V239.44H44.7217V254.866ZM71.5867 250.253C71.1938 251.534 69.9131 252.378 68.2249 252.378C65.8528 252.378 64.3393 250.719 64.3393 248.245V248.026H75.1231V246.847C75.1231 242.161 72.3871 239.12 68.0066 239.12C63.5534 239.12 60.7301 242.336 60.7301 247.211C60.7301 252.13 63.5243 255.172 68.1522 255.172C71.805 255.172 74.5119 253.164 74.9776 250.253H71.5867ZM68.0212 241.929C70.1023 241.929 71.4994 243.457 71.5721 245.64H64.3684C64.5139 243.486 65.9838 241.929 68.0212 241.929ZM98.3353 239.44H94.7552L92.1502 251.286H92.0629L89.0504 239.44H85.5722L82.5597 251.286H82.487L79.882 239.44H76.2437L80.4204 254.866H84.2042L87.2313 243.588H87.304L90.3456 254.866H94.1585L98.3353 239.44ZM110.647 255.114C112.626 255.114 114.562 254.08 115.45 252.407H115.522V254.866H119.015V244.242C119.015 241.143 116.527 239.12 112.699 239.12C108.77 239.12 106.31 241.186 106.15 244.068H109.512C109.745 242.787 110.836 241.958 112.554 241.958C114.344 241.958 115.435 242.889 115.435 244.504V245.61L111.36 245.843C107.606 246.076 105.495 247.721 105.495 250.457C105.495 253.236 107.664 255.114 110.647 255.114ZM111.739 252.378C110.167 252.378 109.119 251.577 109.119 250.311C109.119 249.089 110.123 248.303 111.87 248.186L115.435 247.968V249.147C115.435 251.01 113.791 252.378 111.739 252.378ZM122.042 254.866H125.666V233.866H122.042V254.866ZM138.967 250.253C138.575 251.534 137.294 252.378 135.606 252.378C133.234 252.378 131.72 250.719 131.72 248.245V248.026H142.504V246.847C142.504 242.161 139.768 239.12 135.387 239.12C130.934 239.12 128.111 242.336 128.111 247.211C128.111 252.13 130.905 255.172 135.533 255.172C139.186 255.172 141.893 253.164 142.358 250.253H138.967ZM135.402 241.929C137.483 241.929 138.88 243.457 138.953 245.64H131.749C131.895 243.486 133.365 241.929 135.402 241.929ZM144.847 254.866H148.471V245.887C148.471 243.719 149.708 242.394 151.76 242.394C152.371 242.394 152.924 242.482 153.229 242.598V239.324C152.968 239.265 152.56 239.178 152.094 239.178C150.275 239.178 148.922 240.255 148.398 242.132H148.325V239.44H144.847V254.866ZM156.096 235.831V239.44H153.884V242.234H156.096V250.762C156.096 253.76 157.406 254.939 160.739 254.939C161.51 254.939 162.223 254.881 162.616 254.793V252.028C162.383 252.072 161.918 252.101 161.583 252.101C160.302 252.101 159.72 251.519 159.72 250.253V242.234H162.631V239.44H159.72V235.831H156.096ZM164.828 243.864C164.828 246.149 166.313 247.604 169.267 248.259L171.828 248.827C173.444 249.191 173.997 249.714 173.997 250.646C173.997 251.796 172.905 252.523 171.144 252.523C169.311 252.523 168.277 251.766 168.001 250.267H164.435C164.726 253.251 167.113 255.172 171.144 255.172C174.928 255.172 177.606 253.207 177.606 250.297C177.606 248.055 176.369 246.818 173.167 246.105L170.606 245.538C168.99 245.174 168.35 244.563 168.35 243.675C168.35 242.54 169.412 241.783 171.013 241.783C172.687 241.783 173.72 242.671 173.866 244.068H177.242C177.155 241.143 174.768 239.12 171.013 239.12C167.288 239.12 164.828 241.041 164.828 243.864Z" fill="#191C1F"/>
<g opacity="0.6" filter="url(#filter1_d_1592_44849)">
<path d="M54.4141 310.001C54.4141 303.828 59.4181 298.824 65.5908 298.824H310.548C316.721 298.824 321.725 303.828 321.725 310.001V323.972C321.725 330.145 316.721 335.149 310.548 335.149H65.5908C59.4181 335.149 54.4141 330.145 54.4141 323.972V310.001Z" fill="white"/>
</g>
<g filter="url(#filter2_d_1592_44849)">
<rect x="35.7861" y="306.573" width="305" height="137.549" rx="22.3535" fill="white"/>
<rect x="54.4141" y="381.085" width="267.311" height="45.0105" rx="22.5053" fill="#EFEFFA"/>
<path d="M150.093 408.125L153.724 397.624H151.723L149.103 405.978H148.98L146.338 397.624H144.265L147.932 408.125H150.093ZM156.264 398.84C156.86 398.84 157.348 398.367 157.348 397.77C157.348 397.181 156.86 396.7 156.264 396.7C155.674 396.7 155.187 397.181 155.187 397.77C155.187 398.367 155.674 398.84 156.264 398.84ZM155.369 408.125H157.166V400.171H155.369V408.125ZM164.595 405.949C164.333 406.546 163.715 406.88 162.82 406.88C161.634 406.88 160.87 406.036 160.826 404.69V404.595H166.385V404.021C166.385 401.525 165.025 400.018 162.754 400.018C160.448 400.018 159.014 401.627 159.014 404.181C159.014 406.727 160.426 408.285 162.769 408.285C164.646 408.285 165.978 407.382 166.305 405.949H164.595ZM162.747 401.423C163.831 401.423 164.544 402.187 164.581 403.395H160.833C160.913 402.201 161.67 401.423 162.747 401.423ZM178.755 400.171H176.958L175.641 406.145H175.517L173.975 400.171H172.25L170.722 406.145H170.598L169.274 400.171H167.455L169.609 408.125H171.486L173.029 402.361H173.152L174.702 408.125H176.602L178.755 400.171ZM187.189 408.255C188.295 408.255 189.212 407.739 189.663 406.866H189.787V408.125H191.533V397.093H189.728V401.437H189.605C189.183 400.564 188.28 400.04 187.189 400.04C185.181 400.04 183.914 401.627 183.914 404.144C183.914 406.669 185.173 408.255 187.189 408.255ZM187.749 401.547C188.986 401.547 189.75 402.543 189.75 404.152C189.75 405.767 188.993 406.757 187.749 406.757C186.512 406.757 185.763 405.781 185.763 404.152C185.763 402.529 186.519 401.547 187.749 401.547ZM198.999 405.949C198.737 406.546 198.118 406.88 197.223 406.88C196.037 406.88 195.273 406.036 195.229 404.69V404.595H200.789V404.021C200.789 401.525 199.428 400.018 197.158 400.018C194.851 400.018 193.418 401.627 193.418 404.181C193.418 406.727 194.829 408.285 197.172 408.285C199.05 408.285 200.381 407.382 200.709 405.949H198.999ZM197.15 401.423C198.235 401.423 198.948 402.187 198.984 403.395H195.237C195.317 402.201 196.074 401.423 197.15 401.423ZM203.175 398.221V400.222H201.917V401.627H203.175V406.014C203.175 407.55 203.903 408.161 205.729 408.161C206.079 408.161 206.413 408.132 206.675 408.081V406.698C206.457 406.72 206.319 406.735 206.064 406.735C205.307 406.735 204.973 406.378 204.973 405.585V401.627H206.675V400.222H204.973V398.221H203.175ZM210.67 408.255C211.711 408.255 212.584 407.804 213.028 407.033H213.152V408.125H214.891V402.689C214.891 401.008 213.741 400.018 211.696 400.018C209.804 400.018 208.487 400.906 208.342 402.296H210.044C210.212 401.75 210.779 401.452 211.609 401.452C212.584 401.452 213.108 401.896 213.108 402.689V403.373L211.056 403.497C209.12 403.606 208.036 404.443 208.036 405.869C208.036 407.324 209.135 408.255 210.67 408.255ZM211.201 406.866C210.401 406.866 209.826 406.465 209.826 405.781C209.826 405.119 210.299 404.748 211.311 404.683L213.108 404.559V405.207C213.108 406.153 212.293 406.866 211.201 406.866ZM217.983 398.84C218.58 398.84 219.067 398.367 219.067 397.77C219.067 397.181 218.58 396.7 217.983 396.7C217.394 396.7 216.906 397.181 216.906 397.77C216.906 398.367 217.394 398.84 217.983 398.84ZM217.088 408.125H218.885V400.171H217.088V408.125ZM221.199 408.125H223.004V397.093H221.199V408.125ZM225.107 402.442C225.107 403.635 225.827 404.333 227.355 404.683L228.767 405.01C229.524 405.185 229.866 405.476 229.866 405.927C229.866 406.531 229.233 406.946 228.323 406.946C227.421 406.946 226.861 406.582 226.686 405.992H224.903C225.041 407.426 226.293 408.285 228.279 408.285C230.266 408.285 231.67 407.273 231.67 405.752C231.67 404.581 230.965 403.933 229.444 403.584L228.039 403.271C227.239 403.082 226.861 402.798 226.861 402.347C226.861 401.758 227.479 401.357 228.301 401.357C229.145 401.357 229.677 401.721 229.808 402.281H231.503C231.372 400.848 230.186 400.018 228.294 400.018C226.417 400.018 225.107 401.015 225.107 402.442Z" fill="#3E3B57"/>
<rect width="267.311" height="37.2559" transform="translate(54.4141 325.201)" fill="white"/>
<rect x="54.4141" y="325.201" width="37.2559" height="37.2559" rx="11.1768" fill="#E0F9FF"/>
<g clip-path="url(#clip3_1592_44849)">
<path fill-rule="evenodd" clip-rule="evenodd" d="M72.744 332.815C73.0673 332.594 73.4943 332.599 73.8125 332.827L82.8993 339.347C83.2279 339.583 83.3668 340.004 83.2429 340.389C83.1191 340.774 82.7608 341.035 82.3563 341.035H63.7283C63.3199 341.035 62.9591 340.769 62.8385 340.379C62.7179 339.988 62.8656 339.565 63.2029 339.335L72.744 332.815ZM66.7422 339.172H79.4605L73.2564 334.721L66.7422 339.172ZM73.042 341.966C73.5564 341.966 73.9734 342.383 73.9734 342.898V350.349C73.9734 350.863 73.5564 351.28 73.042 351.28C72.5276 351.28 72.1106 350.863 72.1106 350.349V342.898C72.1106 342.383 72.5276 341.966 73.042 341.966ZM68.385 342.898C68.385 342.383 67.968 341.966 67.4536 341.966C66.9392 341.966 66.5222 342.383 66.5222 342.898L66.5222 350.349C66.5222 350.863 66.9392 351.28 67.4536 351.28C67.968 351.28 68.385 350.863 68.385 350.349L68.385 342.898ZM78.6304 341.966C79.1448 341.966 79.5618 342.383 79.5618 342.898V350.349C79.5618 350.863 79.1448 351.28 78.6304 351.28C78.116 351.28 77.699 350.863 77.699 350.349V342.898C77.699 342.383 78.116 341.966 78.6304 341.966ZM64.6594 352.212C64.145 352.212 63.728 352.629 63.728 353.143C63.728 353.657 64.145 354.074 64.6594 354.074L81.4246 354.074C81.939 354.074 82.356 353.657 82.356 353.143C82.356 352.629 81.939 352.212 81.4246 352.212L64.6594 352.212Z" fill="#098AE0"/>
</g>
<path d="M110.916 339.829H112.932L109.199 329.329H107.089L103.363 339.829H105.262L106.165 337.115H110.029L110.916 339.829ZM108.042 331.301H108.166L109.592 335.667H106.601L108.042 331.301ZM118.52 339.829H120.325V335.194C120.325 334.001 121.002 333.251 122.079 333.251C123.177 333.251 123.687 333.87 123.687 335.107V339.829H125.491V334.685C125.491 332.793 124.523 331.723 122.748 331.723C121.562 331.723 120.762 332.262 120.383 333.149H120.259V331.876H118.52V339.829ZM132.819 337.653C132.557 338.25 131.938 338.585 131.043 338.585C129.857 338.585 129.093 337.741 129.049 336.395V336.3H134.609V335.725C134.609 333.229 133.248 331.723 130.978 331.723C128.671 331.723 127.238 333.331 127.238 335.885C127.238 338.432 128.649 339.989 130.992 339.989C132.87 339.989 134.201 339.087 134.529 337.653H132.819ZM130.97 333.127C132.055 333.127 132.768 333.891 132.804 335.099H129.057C129.137 333.906 129.894 333.127 130.97 333.127ZM146.979 331.876H145.182L143.865 337.85H143.741L142.198 331.876H140.474L138.946 337.85H138.822L137.498 331.876H135.678L137.832 339.829H139.71L141.252 334.066H141.376L142.926 339.829H144.825L146.979 331.876ZM153.448 330.544C154.044 330.544 154.532 330.071 154.532 329.475C154.532 328.885 154.044 328.405 153.448 328.405C152.858 328.405 152.371 328.885 152.371 329.475C152.371 330.071 152.858 330.544 153.448 330.544ZM152.553 339.829H154.35V331.876H152.553V339.829ZM156.591 339.829H158.396V335.194C158.396 334.001 159.072 333.251 160.149 333.251C161.248 333.251 161.758 333.87 161.758 335.107V339.829H163.562V334.685C163.562 332.793 162.594 331.723 160.819 331.723C159.633 331.723 158.832 332.262 158.454 333.149H158.33V331.876H156.591V339.829ZM168.59 331.745C166.582 331.745 165.308 333.338 165.308 335.849C165.308 338.374 166.553 339.96 168.561 339.96C169.689 339.96 170.526 339.48 170.984 338.621H171.108V342.47H172.927V331.876H171.173V333.193H171.05C170.613 332.312 169.667 331.745 168.59 331.745ZM169.129 338.461C167.892 338.461 167.157 337.486 167.157 335.856C167.157 334.226 167.899 333.251 169.136 333.251C170.366 333.251 171.144 334.248 171.144 335.856C171.144 337.472 170.373 338.461 169.129 338.461ZM182.059 331.876H180.254V336.511C180.254 337.712 179.614 338.439 178.443 338.439C177.366 338.439 176.864 337.843 176.864 336.606V331.876H175.059V337.042C175.059 338.905 176.078 339.989 177.817 339.989C179.032 339.989 179.811 339.473 180.196 338.563H180.32V339.829H182.059V331.876ZM185.188 330.544C185.785 330.544 186.272 330.071 186.272 329.475C186.272 328.885 185.785 328.405 185.188 328.405C184.599 328.405 184.111 328.885 184.111 329.475C184.111 330.071 184.599 330.544 185.188 330.544ZM184.293 339.829H186.09V331.876H184.293V339.829ZM188.331 339.829H190.136V335.208C190.136 334.088 190.951 333.36 192.123 333.36C192.428 333.36 192.908 333.411 193.047 333.462V331.818C192.879 331.774 192.559 331.745 192.297 331.745C191.271 331.745 190.413 332.327 190.194 333.113H190.071V331.876H188.331V339.829ZM195.477 342.711C197.26 342.711 198.111 342.063 198.788 340.106L201.662 331.876H199.756L197.9 338.119H197.776L195.914 331.876H193.934L196.78 339.858L196.685 340.229C196.452 340.979 196.023 341.27 195.259 341.27C195.135 341.27 194.866 341.263 194.764 341.248V342.682C194.88 342.703 195.368 342.711 195.477 342.711ZM217.852 331.876H216.055L214.738 337.85H214.614L213.072 331.876H211.347L209.819 337.85H209.695L208.371 331.876H206.552L208.706 339.829H210.583L212.126 334.066H212.249L213.799 339.829H215.699L217.852 331.876ZM221.403 339.96C222.444 339.96 223.317 339.509 223.761 338.738H223.885V339.829H225.624V334.394C225.624 332.713 224.474 331.723 222.429 331.723C220.537 331.723 219.22 332.611 219.075 334.001H220.778C220.945 333.455 221.512 333.157 222.342 333.157C223.317 333.157 223.841 333.6 223.841 334.394V335.078L221.789 335.201C219.853 335.31 218.769 336.147 218.769 337.573C218.769 339.029 219.868 339.96 221.403 339.96ZM221.935 338.57C221.134 338.57 220.559 338.17 220.559 337.486C220.559 336.824 221.032 336.453 222.044 336.387L223.841 336.264V336.911C223.841 337.857 223.026 338.57 221.935 338.57ZM227.617 334.146C227.617 335.339 228.338 336.038 229.866 336.387L231.278 336.715C232.034 336.889 232.376 337.18 232.376 337.632C232.376 338.236 231.743 338.65 230.834 338.65C229.931 338.65 229.371 338.286 229.196 337.697H227.414C227.552 339.131 228.804 339.989 230.79 339.989C232.777 339.989 234.181 338.978 234.181 337.457C234.181 336.285 233.475 335.638 231.954 335.289L230.55 334.976C229.75 334.786 229.371 334.503 229.371 334.052C229.371 333.462 229.99 333.062 230.812 333.062C231.656 333.062 232.187 333.426 232.318 333.986H234.014C233.883 332.553 232.697 331.723 230.805 331.723C228.927 331.723 227.617 332.72 227.617 334.146ZM239.98 339.829H241.785V334.99C241.785 334.001 242.447 333.251 243.342 333.251C244.23 333.251 244.783 333.79 244.783 334.67V339.829H246.536V334.859C246.536 333.95 247.155 333.251 248.094 333.251C249.061 333.251 249.549 333.768 249.549 334.801V339.829H251.346V334.357C251.346 332.705 250.386 331.723 248.792 331.723C247.686 331.723 246.769 332.291 246.376 333.157H246.253C245.918 332.276 245.154 331.723 244.055 331.723C243 331.723 242.185 332.262 241.843 333.157H241.719V331.876H239.98V339.829ZM255.676 339.96C256.716 339.96 257.59 339.509 258.033 338.738H258.157V339.829H259.896V334.394C259.896 332.713 258.747 331.723 256.702 331.723C254.81 331.723 253.493 332.611 253.347 334.001H255.05C255.217 333.455 255.785 333.157 256.614 333.157C257.59 333.157 258.113 333.6 258.113 334.394V335.078L256.061 335.201C254.126 335.31 253.042 336.147 253.042 337.573C253.042 339.029 254.14 339.96 255.676 339.96ZM256.207 338.57C255.407 338.57 254.832 338.17 254.832 337.486C254.832 336.824 255.305 336.453 256.316 336.387L258.113 336.264V336.911C258.113 337.857 257.298 338.57 256.207 338.57ZM264.953 339.96C266.059 339.96 266.976 339.443 267.427 338.57H267.551V339.829H269.297V328.798H267.493V333.142H267.369C266.947 332.269 266.045 331.745 264.953 331.745C262.945 331.745 261.679 333.331 261.679 335.849C261.679 338.374 262.938 339.96 264.953 339.96ZM265.514 333.251C266.751 333.251 267.515 334.248 267.515 335.856C267.515 337.472 266.758 338.461 265.514 338.461C264.277 338.461 263.527 337.486 263.527 335.856C263.527 334.233 264.284 333.251 265.514 333.251ZM276.763 337.653C276.501 338.25 275.883 338.585 274.988 338.585C273.802 338.585 273.038 337.741 272.994 336.395V336.3H278.553V335.725C278.553 333.229 277.193 331.723 274.922 331.723C272.616 331.723 271.182 333.331 271.182 335.885C271.182 338.432 272.594 339.989 274.937 339.989C276.814 339.989 278.146 339.087 278.473 337.653H276.763ZM274.915 333.127C275.999 333.127 276.712 333.891 276.749 335.099H273.001C273.081 333.906 273.838 333.127 274.915 333.127ZM287.773 339.989C290.152 339.989 291.6 338.432 291.6 335.849C291.6 333.28 290.145 331.723 287.773 331.723C285.408 331.723 283.945 333.287 283.945 335.849C283.945 338.432 285.386 339.989 287.773 339.989ZM287.773 338.512C286.514 338.512 285.793 337.537 285.793 335.856C285.793 334.175 286.514 333.2 287.773 333.2C289.024 333.2 289.745 334.175 289.745 335.856C289.745 337.537 289.031 338.512 287.773 338.512ZM293.419 339.829H295.224V335.194C295.224 334.001 295.901 333.251 296.977 333.251C298.076 333.251 298.586 333.87 298.586 335.107V339.829H300.39V334.685C300.39 332.793 299.422 331.723 297.647 331.723C296.461 331.723 295.66 332.262 295.282 333.149H295.158V331.876H293.419V339.829ZM104.826 360.711C106.609 360.711 107.46 360.063 108.137 358.106L111.011 349.876H109.105L107.249 356.119H107.125L105.262 349.876H103.283L106.128 357.858L106.034 358.229C105.801 358.979 105.372 359.27 104.608 359.27C104.484 359.27 104.215 359.263 104.113 359.248V360.682C104.229 360.703 104.717 360.711 104.826 360.711ZM115.682 357.989C118.062 357.989 119.51 356.432 119.51 353.849C119.51 351.28 118.055 349.723 115.682 349.723C113.318 349.723 111.855 351.287 111.855 353.849C111.855 356.432 113.296 357.989 115.682 357.989ZM115.682 356.512C114.424 356.512 113.703 355.537 113.703 353.856C113.703 352.175 114.424 351.2 115.682 351.2C116.934 351.2 117.654 352.175 117.654 353.856C117.654 355.537 116.941 356.512 115.682 356.512ZM128.256 349.876H126.452V354.511C126.452 355.712 125.811 356.439 124.64 356.439C123.563 356.439 123.061 355.843 123.061 354.606V349.876H121.256V355.042C121.256 356.905 122.275 357.989 124.014 357.989C125.229 357.989 126.008 357.473 126.394 356.563H126.517V357.829H128.256V349.876ZM130.468 357.829H132.273V353.208C132.273 352.088 133.088 351.36 134.259 351.36C134.565 351.36 135.045 351.411 135.184 351.462V349.818C135.016 349.774 134.696 349.745 134.434 349.745C133.408 349.745 132.55 350.327 132.331 351.113H132.208V349.876H130.468V357.829ZM147.517 352.532C147.328 350.887 146.091 349.723 144.046 349.723C141.652 349.723 140.248 351.258 140.248 353.834C140.248 356.439 141.66 357.989 144.054 357.989C146.069 357.989 147.321 356.869 147.517 355.224H145.8C145.611 356.061 144.985 356.505 144.046 356.505C142.817 356.505 142.074 355.522 142.074 353.834C142.074 352.175 142.809 351.2 144.046 351.2C145.036 351.2 145.633 351.76 145.8 352.532H147.517ZM149.242 357.829H151.046V353.208C151.046 352.088 151.861 351.36 153.033 351.36C153.339 351.36 153.819 351.411 153.957 351.462V349.818C153.79 349.774 153.47 349.745 153.208 349.745C152.182 349.745 151.323 350.327 151.105 351.113H150.981V349.876H149.242V357.829ZM160.426 355.653C160.164 356.25 159.545 356.585 158.65 356.585C157.464 356.585 156.7 355.741 156.657 354.395V354.3H162.216V353.725C162.216 351.229 160.855 349.723 158.585 349.723C156.278 349.723 154.845 351.331 154.845 353.885C154.845 356.432 156.256 357.989 158.6 357.989C160.477 357.989 161.808 357.087 162.136 355.653H160.426ZM158.578 351.127C159.662 351.127 160.375 351.891 160.411 353.099H156.664C156.744 351.906 157.501 351.127 158.578 351.127ZM166.909 357.96C168.015 357.96 168.932 357.443 169.383 356.57H169.507V357.829H171.253V346.798H169.449V351.142H169.325C168.903 350.269 168.001 349.745 166.909 349.745C164.901 349.745 163.635 351.331 163.635 353.849C163.635 356.374 164.894 357.96 166.909 357.96ZM167.47 351.251C168.707 351.251 169.471 352.248 169.471 353.856C169.471 355.472 168.714 356.461 167.47 356.461C166.233 356.461 165.483 355.486 165.483 353.856C165.483 352.233 166.24 351.251 167.47 351.251ZM174.448 348.544C175.044 348.544 175.532 348.071 175.532 347.475C175.532 346.885 175.044 346.405 174.448 346.405C173.858 346.405 173.371 346.885 173.371 347.475C173.371 348.071 173.858 348.544 174.448 348.544ZM173.553 357.829H175.35V349.876H173.553V357.829ZM178.166 347.926V349.927H176.907V351.331H178.166V355.719C178.166 357.254 178.894 357.865 180.72 357.865C181.069 357.865 181.404 357.836 181.666 357.785V356.403C181.448 356.425 181.31 356.439 181.055 356.439C180.298 356.439 179.963 356.083 179.963 355.29V351.331H181.666V349.927H179.963V347.926H178.166ZM188.026 357.829H189.823V351.331H191.533V349.927H189.801V349.192C189.801 348.435 190.136 348.057 190.987 348.057C191.242 348.057 191.46 348.079 191.606 348.1V346.798C191.315 346.747 190.987 346.725 190.602 346.725C188.834 346.725 188.026 347.504 188.026 349.09V349.927H186.723V351.331H188.026V357.829ZM194.196 348.544C194.793 348.544 195.281 348.071 195.281 347.475C195.281 346.885 194.793 346.405 194.196 346.405C193.607 346.405 193.119 346.885 193.119 347.475C193.119 348.071 193.607 348.544 194.196 348.544ZM193.301 357.829H195.099V349.876H193.301V357.829ZM197.413 357.829H199.217V346.798H197.413V357.829ZM206.69 355.653C206.428 356.25 205.81 356.585 204.915 356.585C203.729 356.585 202.965 355.741 202.921 354.395V354.3H208.48V353.725C208.48 351.229 207.119 349.723 204.849 349.723C202.543 349.723 201.109 351.331 201.109 353.885C201.109 356.432 202.521 357.989 204.864 357.989C206.741 357.989 208.073 357.087 208.4 355.653H206.69ZM204.842 351.127C205.926 351.127 206.639 351.891 206.676 353.099H202.928C203.008 351.906 203.765 351.127 204.842 351.127Z" fill="#191C1F"/>
</g>
<g clip-path="url(#clip4_1592_44849)">
<circle cx="46.667" cy="69.7012" r="11.1768" fill="#3E3B57"/>
<path d="M41.2005 72.6017C41.5052 72.6017 41.678 72.4516 41.7872 72.0969L42.2192 70.8508H44.6705L45.1025 72.106C45.2071 72.4562 45.3845 72.6017 45.7029 72.6017C46.0439 72.6017 46.2895 72.3789 46.2895 72.0605C46.2895 71.9559 46.2668 71.8513 46.2122 71.7013L44.3021 66.5167C44.1384 66.0756 43.8746 65.8846 43.4426 65.8846C43.0151 65.8846 42.7513 66.0847 42.5921 66.5213L40.6866 71.7013C40.632 71.8422 40.6093 71.9696 40.6093 72.0605C40.6093 72.3925 40.8412 72.6017 41.2005 72.6017ZM42.4966 69.9231L43.4198 67.1216H43.4517L44.384 69.9231H42.4966ZM49.755 72.6336C51.5696 72.6336 52.6156 71.5375 52.6156 69.8321V69.6957C52.6156 69.3136 52.3973 69.0862 52.0334 69.0862H50.3053C50.0142 69.0862 49.8141 69.2545 49.8141 69.5319C49.8141 69.8094 50.0142 69.9822 50.3053 69.9822H51.4695L51.465 70.0913C51.4468 71.01 50.76 71.6376 49.7686 71.6376C48.5862 71.6376 47.8494 70.7144 47.8494 69.2045C47.8494 67.7264 48.5543 66.8487 49.7368 66.8487C50.4508 66.8487 50.9829 67.1762 51.3103 67.8265C51.4559 68.0903 51.6332 68.204 51.8879 68.204C52.2017 68.204 52.4064 67.9993 52.4064 67.6901C52.4064 67.5718 52.3882 67.4536 52.32 67.299C51.9561 66.4531 50.9692 65.8527 49.7322 65.8527C47.8358 65.8527 46.6488 67.1352 46.6488 69.2181C46.6488 71.3329 47.8403 72.6336 49.755 72.6336Z" fill="white"/>
</g>
<path fill-rule="evenodd" clip-rule="evenodd" d="M326.199 60.5894C326.153 60.6296 326.108 60.6714 326.065 60.7149L325.939 60.8497C325.575 61.2652 325.343 61.7784 325.271 62.3234L325.265 62.3777L325.184 62.4166C322.978 63.4922 321.521 65.7475 321.521 68.2791V71.2213C321.521 71.4756 321.42 71.7202 321.24 71.9002L319.931 73.2088C319.344 73.7956 319.76 74.7988 320.59 74.7988H324.315C324.315 75.7869 324.708 76.7345 325.406 77.4332C326.105 78.1319 327.053 78.5244 328.041 78.5244C329.029 78.5244 329.976 78.1319 330.675 77.4332C331.374 76.7345 331.766 75.7869 331.766 74.7988H335.492C336.322 74.7988 336.737 73.7956 336.15 73.2088L334.842 71.9002C334.753 71.8111 334.682 71.7051 334.634 71.5883C334.585 71.4718 334.56 71.3468 334.56 71.2204V70.7211C333.915 70.555 333.292 70.3328 332.698 70.0598V71.2204C332.698 71.5913 332.771 71.9584 332.913 72.301L333.006 72.5028C333.073 72.6346 333.15 72.7608 333.237 72.8803L333.28 72.936H322.803L322.909 72.7874C323.216 72.327 323.384 71.7826 323.384 71.2213V68.2791C323.384 66.2899 324.643 64.5389 326.488 63.8864C326.62 63.8398 326.736 63.7657 326.832 63.6718C326.483 62.6996 326.265 61.665 326.199 60.5894ZM326.178 74.7988C326.178 75.2928 326.374 75.7667 326.723 76.116C327.073 76.4653 327.547 76.6616 328.041 76.6616C328.535 76.6616 329.009 76.4653 329.358 76.116C329.707 75.7667 329.903 75.2928 329.903 74.7988H326.178Z" fill="#191C1F"/>
<rect x="328.384" y="51.0732" width="27.1768" height="18.5884" rx="9.29419" fill="#E00909"/>
<path d="M338.043 64.0587C340.046 64.0587 341.235 62.4924 341.235 59.8347C341.235 57.226 339.969 55.7962 338.086 55.7962C336.373 55.7962 335.161 56.9477 335.161 58.5576C335.161 60.0693 336.253 61.1717 337.754 61.1717C338.676 61.1717 339.424 60.746 339.795 59.9984H339.887C339.871 61.8484 339.211 62.9072 338.059 62.9072C337.382 62.9072 336.842 62.5361 336.673 61.9358H335.27C335.5 63.2182 336.602 64.0587 338.043 64.0587ZM338.092 60.0857C337.175 60.0857 336.542 59.4417 336.542 58.514C336.542 57.6244 337.208 56.9422 338.097 56.9422C338.987 56.9422 339.653 57.6353 339.653 58.5412C339.653 59.4363 339.003 60.0857 338.092 60.0857ZM346.311 61.3354H348.461V60.1239H346.311V57.87H345.083V60.1239H342.938V61.3354H345.083V63.5893H346.311V61.3354Z" fill="white"/>
<path fill-rule="evenodd" clip-rule="evenodd" d="M167.415 66.3878H168.359V57.2832H167.415V66.3878Z" fill="#231F20"/>
<path fill-rule="evenodd" clip-rule="evenodd" d="M177.787 65.5026C178.156 65.5026 178.551 65.4314 178.97 65.2878C179.39 65.1446 179.778 64.9211 180.135 64.6173C180.492 64.314 180.788 63.9326 181.022 63.4732C181.257 63.0138 181.375 62.4677 181.375 61.8357C181.375 61.2033 181.257 60.6554 181.022 60.1915C180.788 59.7283 180.492 59.3465 180.135 59.0473C179.778 58.7481 179.39 58.5269 178.97 58.3833C178.551 58.2401 178.156 58.1685 177.787 58.1685H176.654V65.5026H177.787ZM175.709 57.2832H177.812C178.316 57.2832 178.834 57.3695 179.367 57.5425C179.9 57.7155 180.385 57.9872 180.821 58.358C181.257 58.7292 181.616 59.2011 181.897 59.7743C182.179 60.3479 182.319 61.0349 182.319 61.8357C182.319 62.6365 182.179 63.3236 181.897 63.8968C181.616 64.47 181.257 64.9399 180.821 65.3066C180.385 65.6733 179.9 65.9454 179.367 66.1225C178.834 66.2993 178.316 66.3878 177.812 66.3878H175.709V57.2832Z" fill="#231F20"/>
<path fill-rule="evenodd" clip-rule="evenodd" d="M189.168 57.2832H193.286L193.399 58.1685H190.113V61.2666H192.946V62.1515H190.113V65.5026H193.626L193.512 66.3878H189.168V57.2832Z" fill="#231F20"/>
<path fill-rule="evenodd" clip-rule="evenodd" d="M200.473 57.2832H201.418L206.705 64.8073V57.2832H207.649V66.3878H206.705L201.418 58.8638V66.3878H200.473V57.2832Z" fill="#231F20"/>
<path fill-rule="evenodd" clip-rule="evenodd" d="M216.135 58.2318H214.12L214.246 57.2832H218.967L219.093 58.2318H217.079V66.3882H216.135V58.2318Z" fill="#231F20"/>
<path fill-rule="evenodd" clip-rule="evenodd" d="M225.565 66.3878H226.509V57.2832H225.565V66.3878Z" fill="#231F20"/>
<path fill-rule="evenodd" clip-rule="evenodd" d="M234.995 58.2318H232.98L233.106 57.2832H237.827L237.954 58.2318H235.939V66.3882H234.995V58.2318Z" fill="#231F20"/>
<path fill-rule="evenodd" clip-rule="evenodd" d="M246.401 63.2015L243.543 57.2832H244.614L246.88 62.0886L249.146 57.2832H250.216L247.333 63.2015V66.3882H246.401V63.2015Z" fill="#231F20"/>
<path fill-rule="evenodd" clip-rule="evenodd" d="M170.42 82.3247C169.791 82.3247 169.201 82.1985 168.652 81.9456C168.101 81.6924 167.621 81.349 167.21 80.9149C166.799 80.4807 166.475 79.9727 166.24 79.3909C166.005 78.8094 165.888 78.1857 165.888 77.5197C165.888 76.8534 166.005 76.2297 166.24 75.6479C166.475 75.0664 166.799 74.5587 167.21 74.1242C167.621 73.6901 168.101 73.3464 168.652 73.0935C169.201 72.8406 169.791 72.7144 170.42 72.7144C170.924 72.7144 171.382 72.7671 171.792 72.8723C172.204 72.9778 172.573 73.1191 172.9 73.2959C173.228 73.473 173.513 73.6799 173.757 73.9158C174 74.1517 174.21 74.4046 174.386 74.6744L173.706 75.2435C173.32 74.7374 172.865 74.3371 172.34 74.042C171.816 73.747 171.176 73.5996 170.42 73.5996C169.933 73.5996 169.472 73.7051 169.035 73.9158C168.599 74.1265 168.217 74.4129 167.89 74.7754C167.562 75.138 167.304 75.5555 167.115 76.0274C166.926 76.4996 166.832 76.997 166.832 77.5197C166.832 78.0424 166.929 78.5399 167.121 79.0117C167.315 79.4839 167.575 79.9011 167.902 80.2637C168.23 80.6262 168.609 80.9126 169.042 81.1233C169.474 81.3343 169.933 81.4395 170.42 81.4395C170.991 81.4395 171.524 81.3321 172.019 81.1169C172.514 80.9021 172.959 80.5377 173.354 80.0232V77.8864H170.899L171.125 77.0136H174.26V80.4913C174.084 80.7272 173.874 80.9548 173.631 81.1738C173.387 81.3931 173.106 81.5891 172.787 81.7621C172.468 81.9351 172.111 82.0719 171.717 82.1732C171.322 82.2742 170.89 82.3247 170.42 82.3247Z" fill="#231F20"/>
<path fill-rule="evenodd" clip-rule="evenodd" d="M184.61 82.3248C184.157 82.3248 183.729 82.2532 183.326 82.11C182.923 81.9664 182.572 81.7497 182.274 81.4588C181.976 81.1678 181.74 80.8094 181.563 80.3839C181.387 79.9581 181.299 79.4587 181.299 78.8855V72.9673H182.243V78.8855C182.243 79.2816 182.304 79.6378 182.426 79.9536C182.547 80.2698 182.715 80.5377 182.929 80.7567C183.143 80.976 183.395 81.1448 183.685 81.2628C183.974 81.3807 184.283 81.4395 184.61 81.4395C184.937 81.4395 185.243 81.3807 185.529 81.2628C185.814 81.1448 186.064 80.976 186.278 80.7567C186.492 80.5377 186.662 80.2698 186.788 79.9536C186.914 79.6378 186.977 79.2816 186.977 78.8855V72.9673H187.921V78.8855C187.921 79.4587 187.833 79.9581 187.657 80.3839C187.48 80.8094 187.244 81.1678 186.945 81.4588C186.647 81.7497 186.297 81.9664 185.894 82.11C185.491 82.2532 185.063 82.3248 184.61 82.3248Z" fill="#231F20"/>
<path fill-rule="evenodd" clip-rule="evenodd" d="M209.109 77.1403C209.344 77.1403 209.571 77.115 209.789 77.0645C210.007 77.014 210.202 76.9255 210.374 76.7989C210.547 76.6726 210.683 76.5041 210.784 76.2931C210.884 76.0824 210.935 75.8167 210.935 75.4964C210.935 75.1847 210.884 74.9232 210.784 74.7125C210.683 74.5019 210.547 74.333 210.374 74.2068C210.202 74.0802 210.007 73.9897 209.789 73.9347C209.571 73.88 209.344 73.8525 209.109 73.8525H208.102V77.1403H209.109ZM207.158 72.9673H209.109C209.47 72.9673 209.819 73.0159 210.154 73.1128C210.49 73.2096 210.786 73.3615 211.042 73.568C211.297 73.7745 211.501 74.0383 211.652 74.3583C211.804 74.679 211.879 75.0581 211.879 75.4964C211.879 75.9434 211.804 76.3184 211.652 76.6221C211.501 76.9255 211.308 77.1765 211.073 77.3743C210.838 77.5722 210.576 77.7218 210.287 77.8232C209.997 77.9245 209.709 77.992 209.424 78.0255L212.257 82.0719H211.061L208.354 78.0255H208.102V82.0719H207.158V72.9673Z" fill="#231F20"/>
<path fill-rule="evenodd" clip-rule="evenodd" d="M220.994 81.1867C221.363 81.1867 221.758 81.1154 222.177 80.9718C222.597 80.8286 222.985 80.6052 223.342 80.3014C223.699 79.998 223.994 79.6167 224.229 79.1573C224.464 78.6979 224.582 78.1518 224.582 77.5198C224.582 76.8874 224.464 76.3395 224.229 75.8755C223.994 75.4124 223.699 75.0306 223.342 74.7314C222.985 74.4322 222.597 74.2109 222.177 74.0673C221.758 73.9241 221.363 73.8525 220.994 73.8525H219.861V81.1867H220.994ZM218.917 72.9673H221.019C221.523 72.9673 222.041 73.0536 222.574 73.2266C223.107 73.3995 223.591 73.6713 224.028 74.0421C224.464 74.4129 224.823 74.8851 225.104 75.4583C225.386 76.0319 225.526 76.719 225.526 77.5198C225.526 78.3206 225.386 79.0076 225.104 79.5809C224.823 80.1541 224.464 80.624 224.028 80.9907C223.591 81.3574 223.107 81.6295 222.574 81.8066C222.041 81.9833 221.523 82.0719 221.019 82.0719H218.917V72.9673Z" fill="#231F20"/>
<path fill-rule="evenodd" clip-rule="evenodd" d="M197.279 74.4977L194.768 82.0715H193.763L197.28 71.9399L200.796 82.0715H199.791L197.279 74.4977Z" fill="#231F20"/>
<path fill-rule="evenodd" clip-rule="evenodd" d="M143.826 80.5571L132.505 57.449L143.826 59.4637V57.8707L129.56 55.3179L143.826 84.6016V80.5571Z" fill="#231F20"/>
<path fill-rule="evenodd" clip-rule="evenodd" d="M145.576 57.8557V84.4479L159.445 55.3179L145.576 57.8557Z" fill="#231F20"/>
</g>
</g>
<defs>
<filter id="filter0_d_1592_44849" x="-23.5836" y="-8.56214" width="426.34" height="836.372" filterUnits="userSpaceOnUse" color-interpolation-filters="sRGB">
<feFlood flood-opacity="0" result="BackgroundImageFix"/>
<feColorMatrix in="SourceAlpha" type="matrix" values="0 0 0 0 0 0 0 0 0 0 0 0 0 0 0 0 0 0 127 0" result="hardAlpha"/>
<feOffset dy="15.2895"/>
<feGaussianBlur stdDeviation="11.9258"/>
<feColorMatrix type="matrix" values="0 0 0 0 0 0 0 0 0 0 0 0 0 0 0 0 0 0 0.4 0"/>
<feBlend mode="normal" in2="BackgroundImageFix" result="effect1_dropShadow_1592_44849"/>
<feBlend mode="normal" in="SourceGraphic" in2="effect1_dropShadow_1592_44849" result="shape"/>
</filter>
<filter id="filter1_d_1592_44849" x="38.4141" y="286.824" width="299.311" height="68.3247" filterUnits="userSpaceOnUse" color-interpolation-filters="sRGB">
<feFlood flood-opacity="0" result="BackgroundImageFix"/>
<feColorMatrix in="SourceAlpha" type="matrix" values="0 0 0 0 0 0 0 0 0 0 0 0 0 0 0 0 0 0 127 0" result="hardAlpha"/>
<feOffset dy="4"/>
<feGaussianBlur stdDeviation="8"/>
<feColorMatrix type="matrix" values="0 0 0 0 0.239216 0 0 0 0 0.129412 0 0 0 0 0.0784314 0 0 0 0.06 0"/>
<feBlend mode="normal" in2="BackgroundImageFix" result="effect1_dropShadow_1592_44849"/>
<feBlend mode="normal" in="SourceGraphic" in2="effect1_dropShadow_1592_44849" result="shape"/>
</filter>
<filter id="filter2_d_1592_44849" x="19.7861" y="294.573" width="337" height="169.549" filterUnits="userSpaceOnUse" color-interpolation-filters="sRGB">
<feFlood flood-opacity="0" result="BackgroundImageFix"/>
<feColorMatrix in="SourceAlpha" type="matrix" values="0 0 0 0 0 0 0 0 0 0 0 0 0 0 0 0 0 0 127 0" result="hardAlpha"/>
<feOffset dy="4"/>
<feGaussianBlur stdDeviation="8"/>
<feColorMatrix type="matrix" values="0 0 0 0 0.239216 0 0 0 0 0.129412 0 0 0 0 0.0784314 0 0 0 0.06 0"/>
<feBlend mode="normal" in2="BackgroundImageFix" result="effect1_dropShadow_1592_44849"/>
<feBlend mode="normal" in="SourceGraphic" in2="effect1_dropShadow_1592_44849" result="shape"/>
</filter>
<linearGradient id="paint0_linear_1592_44849" x1="189.636" y1="15.3589" x2="189.636" y2="387.918" gradientUnits="userSpaceOnUse">
<stop stop-color="#EBE7E4"/>
<stop offset="1" stop-color="#F7F6F5"/>
</linearGradient>
<clipPath id="clip0_1592_44849">
<rect width="379" height="433" fill="white"/>
</clipPath>
<clipPath id="clip1_1592_44849">
<rect x="14.9995" y="15.3589" width="349.173" height="759.468" rx="37.6129" fill="white"/>
</clipPath>
<clipPath id="clip2_1592_44849">
<rect width="22.3535" height="22.3535" fill="white" transform="translate(43.2373 148.885)"/>
</clipPath>
<clipPath id="clip3_1592_44849">
<rect width="22.3535" height="22.3535" fill="white" transform="translate(61.8652 332.652)"/>
</clipPath>
<clipPath id="clip4_1592_44849">
<rect width="22.3535" height="22.3535" fill="white" transform="translate(35.4902 58.5244)"/>
</clipPath>
</defs>
</svg>
