<svg xmlns="http://www.w3.org/2000/svg" viewBox="0 0 800 400" fill="none">
  <defs>
    <linearGradient id="bg" x1="0" y1="0" x2="800" y2="400" gradientUnits="userSpaceOnUse">
      <stop offset="0%" stop-color="#1a1a2e"/>
      <stop offset="100%" stop-color="#16213e"/>
    </linearGradient>
  </defs>
  <!-- Background -->
  <rect width="800" height="400" rx="12" fill="url(#bg)"/>
  <!-- Top nav bar -->
  <rect x="0" y="0" width="800" height="48" rx="12" fill="#0f0f1e"/>
  <rect x="0" y="12" width="800" height="36" fill="#0f0f1e"/>
  <circle cx="24" cy="24" r="8" fill="#C8102E"/>
  <rect x="40" y="18" width="80" height="12" rx="3" fill="#C8102E"/>
  <rect x="160" y="20" width="50" height="8" rx="2" fill="#555"/>
  <rect x="224" y="20" width="50" height="8" rx="2" fill="#555"/>
  <rect x="288" y="20" width="50" height="8" rx="2" fill="#555"/>
  <rect x="680" y="14" width="90" height="20" rx="4" fill="#C8102E"/>
  <!-- Sidebar -->
  <rect x="0" y="48" width="180" height="352" fill="#12122a"/>
  <rect x="20" y="68" width="140" height="10" rx="3" fill="#C8102E" opacity="0.8"/>
  <rect x="20" y="92" width="120" height="8" rx="2" fill="#444"/>
  <rect x="20" y="112" width="130" height="8" rx="2" fill="#444"/>
  <rect x="20" y="132" width="100" height="8" rx="2" fill="#444"/>
  <rect x="20" y="152" width="110" height="8" rx="2" fill="#444"/>
  <rect x="20" y="180" width="140" height="10" rx="3" fill="#666"/>
  <rect x="20" y="204" width="120" height="8" rx="2" fill="#444"/>
  <rect x="20" y="224" width="130" height="8" rx="2" fill="#444"/>
  <rect x="20" y="244" width="100" height="8" rx="2" fill="#444"/>
  <!-- Main content area -->
  <!-- Shield icon -->
  <g transform="translate(280, 70)">
    <path d="M40 0 L80 15 L80 45 C80 70 60 90 40 100 C20 90 0 70 0 45 L0 15 Z" fill="#C8102E" opacity="0.2" stroke="#C8102E" stroke-width="2"/>
    <path d="M30 45 L38 55 L55 35" stroke="#C8102E" stroke-width="4" stroke-linecap="round" stroke-linejoin="round" fill="none"/>
  </g>
  <!-- Status cards -->
  <rect x="200" y="80" width="60" height="70" rx="8" fill="#1e1e3a"/>
  <rect x="210" y="90" width="40" height="6" rx="2" fill="#C8102E" opacity="0.6"/>
  <text x="230" y="125" text-anchor="middle" fill="#4ade80" font-size="18" font-weight="bold" font-family="Arial">OK</text>
  <rect x="400" y="80" width="170" height="70" rx="8" fill="#1e1e3a"/>
  <rect x="415" y="95" width="60" height="6" rx="2" fill="#888"/>
  <rect x="415" y="110" width="140" height="8" rx="2" fill="#C8102E" opacity="0.4"/>
  <rect x="415" y="126" width="100" height="8" rx="2" fill="#C8102E" opacity="0.25"/>
  <rect x="590" y="80" width="170" height="70" rx="8" fill="#1e1e3a"/>
  <rect x="605" y="95" width="60" height="6" rx="2" fill="#888"/>
  <text x="675" y="130" text-anchor="middle" fill="#4ade80" font-size="14" font-weight="bold" font-family="Arial">Protected</text>
  <!-- Threat monitoring section -->
  <rect x="200" y="170" width="370" height="200" rx="8" fill="#1e1e3a"/>
  <rect x="220" y="190" width="120" height="10" rx="3" fill="#eee"/>
  <rect x="220" y="215" width="330" height="1" fill="#333"/>
  <!-- Chart bars -->
  <rect x="240" y="290" width="30" height="60" rx="3" fill="#C8102E" opacity="0.3"/>
  <rect x="285" y="260" width="30" height="90" rx="3" fill="#C8102E" opacity="0.4"/>
  <rect x="330" y="240" width="30" height="110" rx="3" fill="#C8102E" opacity="0.5"/>
  <rect x="375" y="270" width="30" height="80" rx="3" fill="#C8102E" opacity="0.6"/>
  <rect x="420" y="250" width="30" height="100" rx="3" fill="#C8102E" opacity="0.8"/>
  <rect x="465" y="230" width="30" height="120" rx="3" fill="#C8102E"/>
  <!-- Right panel -->
  <rect x="590" y="170" width="170" height="200" rx="8" fill="#1e1e3a"/>
  <rect x="605" y="190" width="80" height="10" rx="3" fill="#eee"/>
  <rect x="605" y="215" width="140" height="8" rx="2" fill="#4ade80" opacity="0.4"/>
  <rect x="605" y="235" width="140" height="8" rx="2" fill="#4ade80" opacity="0.4"/>
  <rect x="605" y="255" width="140" height="8" rx="2" fill="#4ade80" opacity="0.4"/>
  <rect x="605" y="275" width="140" height="8" rx="2" fill="#fbbf24" opacity="0.4"/>
  <rect x="605" y="295" width="140" height="8" rx="2" fill="#4ade80" opacity="0.4"/>
  <rect x="605" y="330" width="140" height="24" rx="6" fill="#C8102E"/>
</svg>