<svg xmlns="http://www.w3.org/2000/svg" viewBox="0 0 800 400" fill="none">
  <defs>
    <linearGradient id="bg" x1="0" y1="0" x2="800" y2="400" gradientUnits="userSpaceOnUse">
      <stop offset="0%" stop-color="#f8f9fa"/>
      <stop offset="100%" stop-color="#e9ecef"/>
    </linearGradient>
  </defs>
  <rect width="800" height="400" rx="12" fill="url(#bg)"/>
  <!-- Top nav -->
  <rect x="0" y="0" width="800" height="48" rx="12" fill="#1B3A5C"/>
  <rect x="0" y="12" width="800" height="36" fill="#1B3A5C"/>
  <rect x="24" y="16" width="100" height="16" rx="3" fill="#4A90D9"/>
  <rect x="160" y="20" width="50" height="8" rx="2" fill="rgba(255,255,255,0.5)"/>
  <rect x="224" y="20" width="60" height="8" rx="2" fill="rgba(255,255,255,0.5)"/>
  <rect x="298" y="20" width="50" height="8" rx="2" fill="rgba(255,255,255,0.5)"/>
  <rect x="680" y="14" width="90" height="20" rx="4" fill="#4A90D9"/>
  <!-- Hero banner -->
  <rect x="0" y="48" width="800" height="100" fill="#1B3A5C" opacity="0.1"/>
  <rect x="40" y="68" width="250" height="16" rx="4" fill="#1B3A5C"/>
  <rect x="40" y="94" width="350" height="10" rx="3" fill="#666"/>
  <rect x="40" y="114" width="120" height="24" rx="6" fill="#4A90D9"/>
  <!-- Main content grid -->
  <!-- Card 1: LLC Formation -->
  <rect x="40" y="168" width="220" height="200" rx="8" fill="white" stroke="#ddd" stroke-width="1"/>
  <rect x="60" y="188" width="80" height="10" rx="3" fill="#1B3A5C"/>
  <rect x="60" y="210" width="180" height="8" rx="2" fill="#999"/>
  <rect x="60" y="228" width="160" height="8" rx="2" fill="#999"/>
  <text x="150" y="270" text-anchor="middle" fill="#1B3A5C" font-size="24" font-weight="bold" font-family="Arial">$39</text>
  <rect x="80" y="285" width="140" height="6" rx="2" fill="#ccc"/>
  <rect x="70" y="310" width="180" height="10" rx="2" fill="#4ade80" opacity="0.3"/>
  <rect x="70" y="328" width="180" height="10" rx="2" fill="#4ade80" opacity="0.3"/>
  <rect x="80" y="348" width="140" height="24" rx="6" fill="#4A90D9"/>
  <!-- Card 2: Registered Agent -->
  <rect x="290" y="168" width="220" height="200" rx="8" fill="white" stroke="#4A90D9" stroke-width="2"/>
  <rect x="350" y="160" width="100" height="18" rx="4" fill="#4A90D9"/>
  <rect x="310" y="188" width="100" height="10" rx="3" fill="#1B3A5C"/>
  <rect x="310" y="210" width="180" height="8" rx="2" fill="#999"/>
  <rect x="310" y="228" width="160" height="8" rx="2" fill="#999"/>
  <text x="400" y="270" text-anchor="middle" fill="#1B3A5C" font-size="24" font-weight="bold" font-family="Arial">$125</text>
  <rect x="330" y="285" width="140" height="6" rx="2" fill="#ccc"/>
  <rect x="320" y="310" width="180" height="10" rx="2" fill="#4ade80" opacity="0.3"/>
  <rect x="320" y="328" width="180" height="10" rx="2" fill="#4ade80" opacity="0.3"/>
  <rect x="330" y="348" width="140" height="24" rx="6" fill="#1B3A5C"/>
  <!-- Card 3: Corporate -->
  <rect x="540" y="168" width="220" height="200" rx="8" fill="white" stroke="#ddd" stroke-width="1"/>
  <rect x="560" y="188" width="80" height="10" rx="3" fill="#1B3A5C"/>
  <rect x="560" y="210" width="180" height="8" rx="2" fill="#999"/>
  <rect x="560" y="228" width="160" height="8" rx="2" fill="#999"/>
  <text x="650" y="270" text-anchor="middle" fill="#1B3A5C" font-size="24" font-weight="bold" font-family="Arial">$225</text>
  <rect x="580" y="285" width="140" height="6" rx="2" fill="#ccc"/>
  <rect x="570" y="310" width="180" height="10" rx="2" fill="#4ade80" opacity="0.3"/>
  <rect x="570" y="328" width="180" height="10" rx="2" fill="#4ade80" opacity="0.3"/>
  <rect x="580" y="348" width="140" height="24" rx="6" fill="#4A90D9"/>
</svg>