<svg xmlns="http://www.w3.org/2000/svg" viewBox="0 0 800 400" fill="none">
  <defs>
    <linearGradient id="bg" x1="0" y1="0" x2="800" y2="400" gradientUnits="userSpaceOnUse">
      <stop offset="0%" stop-color="#F0F7F4"/>
      <stop offset="100%" stop-color="#E8F4EC"/>
    </linearGradient>
  </defs>
  <rect width="800" height="400" rx="12" fill="url(#bg)"/>
  <!-- Top nav -->
  <rect x="0" y="0" width="800" height="48" rx="12" fill="#2D6A4F"/>
  <rect x="0" y="12" width="800" height="36" fill="#2D6A4F"/>
  <rect x="24" y="16" width="130" height="16" rx="3" fill="rgba(255,255,255,0.9)"/>
  <rect x="200" y="20" width="50" height="8" rx="2" fill="rgba(255,255,255,0.5)"/>
  <rect x="264" y="20" width="50" height="8" rx="2" fill="rgba(255,255,255,0.5)"/>
  <rect x="680" y="14" width="90" height="20" rx="4" fill="#52B788"/>
  <!-- Sidebar -->
  <rect x="0" y="48" width="200" height="352" fill="white" stroke="#e0e0e0" stroke-width="1"/>
  <rect x="20" y="68" width="160" height="12" rx="3" fill="#2D6A4F"/>
  <rect x="20" y="96" width="160" height="32" rx="6" fill="#2D6A4F" opacity="0.1"/>
  <rect x="36" y="106" width="100" height="8" rx="2" fill="#2D6A4F"/>
  <rect x="20" y="140" width="160" height="32" rx="6" fill="transparent"/>
  <rect x="36" y="150" width="80" height="8" rx="2" fill="#888"/>
  <rect x="20" y="184" width="160" height="32" rx="6" fill="transparent"/>
  <rect x="36" y="194" width="90" height="8" rx="2" fill="#888"/>
  <rect x="20" y="228" width="160" height="32" rx="6" fill="transparent"/>
  <rect x="36" y="238" width="70" height="8" rx="2" fill="#888"/>
  <rect x="20" y="290" width="160" height="10" rx="3" fill="#aaa"/>
  <rect x="20" y="314" width="160" height="32" rx="6" fill="transparent"/>
  <rect x="36" y="324" width="110" height="8" rx="2" fill="#888"/>
  <!-- Chat area -->
  <rect x="220" y="64" width="560" height="30" rx="6" fill="white" stroke="#ddd" stroke-width="1"/>
  <rect x="236" y="74" width="120" height="10" rx="3" fill="#2D6A4F"/>
  <!-- Chat messages -->
  <rect x="240" y="110" width="280" height="50" rx="12" fill="#2D6A4F" opacity="0.1"/>
  <rect x="256" y="124" width="200" height="8" rx="2" fill="#555"/>
  <rect x="256" y="140" width="150" height="8" rx="2" fill="#555"/>
  <rect x="480" y="180" width="280" height="50" rx="12" fill="#2D6A4F"/>
  <rect x="496" y="194" width="200" height="8" rx="2" fill="rgba(255,255,255,0.8)"/>
  <rect x="496" y="210" width="160" height="8" rx="2" fill="rgba(255,255,255,0.6)"/>
  <rect x="240" y="250" width="320" height="50" rx="12" fill="#2D6A4F" opacity="0.1"/>
  <rect x="256" y="264" width="240" height="8" rx="2" fill="#555"/>
  <rect x="256" y="280" width="180" height="8" rx="2" fill="#555"/>
  <!-- Message input -->
  <rect x="220" y="340" width="560" height="40" rx="8" fill="white" stroke="#2D6A4F" stroke-width="1"/>
  <rect x="240" y="354" width="200" height="10" rx="3" fill="#ccc"/>
  <rect x="700" y="348" width="60" height="24" rx="6" fill="#2D6A4F"/>
</svg>