<svg xmlns="http://www.w3.org/2000/svg" viewBox="0 0 800 400" fill="none">
  <defs>
    <linearGradient id="bg" x1="0" y1="0" x2="800" y2="400" gradientUnits="userSpaceOnUse">
      <stop offset="0%" stop-color="#fafafa"/>
      <stop offset="100%" stop-color="#f0f0f0"/>
    </linearGradient>
  </defs>
  <rect width="800" height="400" rx="12" fill="url(#bg)"/>
  <!-- Top nav -->
  <rect x="0" y="0" width="800" height="48" rx="12" fill="#C41230"/>
  <rect x="0" y="12" width="800" height="36" fill="#C41230"/>
  <rect x="24" y="16" width="110" height="16" rx="3" fill="rgba(255,255,255,0.9)"/>
  <rect x="180" y="20" width="60" height="8" rx="2" fill="rgba(255,255,255,0.5)"/>
  <rect x="260" y="20" width="60" height="8" rx="2" fill="rgba(255,255,255,0.5)"/>
  <rect x="340" y="20" width="60" height="8" rx="2" fill="rgba(255,255,255,0.5)"/>
  <rect x="680" y="14" width="90" height="20" rx="4" fill="rgba(255,255,255,0.2)"/>
  <!-- Hero section -->
  <rect x="0" y="48" width="800" height="80" fill="#C41230" opacity="0.05"/>
  <rect x="40" y="68" width="200" height="14" rx="4" fill="#C41230"/>
  <rect x="40" y="92" width="350" height="10" rx="3" fill="#777"/>
  <!-- Document cards grid -->
  <rect x="40" y="148" width="170" height="120" rx="8" fill="white" stroke="#e0e0e0" stroke-width="1"/>
  <rect x="56" y="164" width="30" height="30" rx="6" fill="#C41230" opacity="0.1"/>
  <rect x="60" y="172" width="22" height="14" rx="2" fill="none" stroke="#C41230" stroke-width="1.5"/>
  <rect x="56" y="206" width="100" height="8" rx="2" fill="#333"/>
  <rect x="56" y="222" width="140" height="6" rx="2" fill="#999"/>
  <rect x="56" y="240" width="80" height="16" rx="4" fill="#C41230"/>
  <!-- Card 2 -->
  <rect x="230" y="148" width="170" height="120" rx="8" fill="white" stroke="#e0e0e0" stroke-width="1"/>
  <rect x="246" y="164" width="30" height="30" rx="6" fill="#C41230" opacity="0.1"/>
  <rect x="250" y="172" width="22" height="14" rx="2" fill="none" stroke="#C41230" stroke-width="1.5"/>
  <rect x="246" y="206" width="100" height="8" rx="2" fill="#333"/>
  <rect x="246" y="222" width="140" height="6" rx="2" fill="#999"/>
  <rect x="246" y="240" width="80" height="16" rx="4" fill="#C41230"/>
  <!-- Card 3 -->
  <rect x="420" y="148" width="170" height="120" rx="8" fill="white" stroke="#e0e0e0" stroke-width="1"/>
  <rect x="436" y="164" width="30" height="30" rx="6" fill="#C41230" opacity="0.1"/>
  <rect x="440" y="172" width="22" height="14" rx="2" fill="none" stroke="#C41230" stroke-width="1.5"/>
  <rect x="436" y="206" width="100" height="8" rx="2" fill="#333"/>
  <rect x="436" y="222" width="140" height="6" rx="2" fill="#999"/>
  <rect x="436" y="240" width="80" height="16" rx="4" fill="#C41230"/>
  <!-- Card 4 -->
  <rect x="610" y="148" width="170" height="120" rx="8" fill="white" stroke="#e0e0e0" stroke-width="1"/>
  <rect x="626" y="164" width="30" height="30" rx="6" fill="#C41230" opacity="0.1"/>
  <rect x="630" y="172" width="22" height="14" rx="2" fill="none" stroke="#C41230" stroke-width="1.5"/>
  <rect x="626" y="206" width="100" height="8" rx="2" fill="#333"/>
  <rect x="626" y="222" width="140" height="6" rx="2" fill="#999"/>
  <rect x="626" y="240" width="80" height="16" rx="4" fill="#C41230"/>
  <!-- Bottom section - Ask a lawyer -->
  <rect x="40" y="288" width="720" height="90" rx="8" fill="white" stroke="#e0e0e0" stroke-width="1"/>
  <rect x="60" y="308" width="140" height="12" rx="3" fill="#C41230"/>
  <rect x="60" y="330" width="350" height="8" rx="2" fill="#999"/>
  <rect x="60" y="348" width="300" height="8" rx="2" fill="#999"/>
  <rect x="620" y="318" width="120" height="32" rx="6" fill="#C41230"/>
</svg>