<svg xmlns="http://www.w3.org/2000/svg" viewBox="0 0 800 400" fill="none">
  <defs>
    <linearGradient id="bg" x1="0" y1="0" x2="800" y2="400" gradientUnits="userSpaceOnUse">
      <stop offset="0%" stop-color="#F4F6F8"/>
      <stop offset="100%" stop-color="#E8ECF0"/>
    </linearGradient>
  </defs>
  <rect width="800" height="400" rx="12" fill="url(#bg)"/>
  <!-- Top nav -->
  <rect x="0" y="0" width="800" height="48" rx="12" fill="#1A1A1A"/>
  <rect x="0" y="12" width="800" height="36" fill="#1A1A1A"/>
  <rect x="24" y="16" width="28" height="16" rx="3" fill="#95BF47"/>
  <rect x="60" y="14" width="300" height="20" rx="6" fill="#333"/>
  <rect x="700" y="16" width="16" height="16" rx="8" fill="#95BF47"/>
  <!-- Sidebar -->
  <rect x="0" y="48" width="200" height="352" fill="#1A1A1A"/>
  <rect x="16" y="68" width="168" height="32" rx="6" fill="#333"/>
  <rect x="32" y="78" width="80" height="10" rx="2" fill="#95BF47"/>
  <rect x="16" y="112" width="168" height="28" rx="4" fill="transparent"/>
  <rect x="32" y="120" width="60" height="8" rx="2" fill="#888"/>
  <rect x="16" y="148" width="168" height="28" rx="4" fill="transparent"/>
  <rect x="32" y="156" width="70" height="8" rx="2" fill="#888"/>
  <rect x="16" y="184" width="168" height="28" rx="4" fill="transparent"/>
  <rect x="32" y="192" width="50" height="8" rx="2" fill="#888"/>
  <rect x="16" y="220" width="168" height="28" rx="4" fill="transparent"/>
  <rect x="32" y="228" width="80" height="8" rx="2" fill="#888"/>
  <rect x="16" y="256" width="168" height="28" rx="4" fill="transparent"/>
  <rect x="32" y="264" width="60" height="8" rx="2" fill="#888"/>
  <rect x="16" y="310" width="168" height="28" rx="4" fill="transparent"/>
  <rect x="32" y="318" width="90" height="8" rx="2" fill="#888"/>
  <!-- Main content -->
  <rect x="220" y="64" width="150" height="16" rx="4" fill="#333"/>
  <!-- Stats cards -->
  <rect x="220" y="96" width="135" height="70" rx="8" fill="white" stroke="#e0e0e0" stroke-width="1"/>
  <rect x="236" y="112" width="60" height="8" rx="2" fill="#999"/>
  <text x="236" y="146" fill="#333" font-size="20" font-weight="bold" font-family="Arial">$4,892</text>
  <rect x="370" y="96" width="135" height="70" rx="8" fill="white" stroke="#e0e0e0" stroke-width="1"/>
  <rect x="386" y="112" width="50" height="8" rx="2" fill="#999"/>
  <text x="386" y="146" fill="#333" font-size="20" font-weight="bold" font-family="Arial">127</text>
  <rect x="520" y="96" width="135" height="70" rx="8" fill="white" stroke="#e0e0e0" stroke-width="1"/>
  <rect x="536" y="112" width="70" height="8" rx="2" fill="#999"/>
  <text x="536" y="146" fill="#95BF47" font-size="20" font-weight="bold" font-family="Arial">3.2%</text>
  <rect x="670" y="96" width="100" height="70" rx="8" fill="white" stroke="#e0e0e0" stroke-width="1"/>
  <rect x="686" y="112" width="50" height="8" rx="2" fill="#999"/>
  <text x="686" y="146" fill="#333" font-size="20" font-weight="bold" font-family="Arial">$38</text>
  <!-- Sales chart -->
  <rect x="220" y="186" width="390" height="190" rx="8" fill="white" stroke="#e0e0e0" stroke-width="1"/>
  <rect x="240" y="206" width="80" height="10" rx="3" fill="#333"/>
  <rect x="240" y="230" width="350" height="1" fill="#eee"/>
  <!-- Chart line -->
  <polyline points="260,340 300,320 340,330 380,290 420,300 460,260 500,270 540,240 580,250" stroke="#95BF47" stroke-width="2.5" fill="none" stroke-linecap="round" stroke-linejoin="round"/>
  <polyline points="260,340 300,320 340,330 380,290 420,300 460,260 500,270 540,240 580,250 580,360 260,360" fill="#95BF47" opacity="0.08"/>
  <!-- Recent orders -->
  <rect x="630" y="186" width="140" height="190" rx="8" fill="white" stroke="#e0e0e0" stroke-width="1"/>
  <rect x="646" y="206" width="60" height="10" rx="3" fill="#333"/>
  <rect x="646" y="232" width="108" height="8" rx="2" fill="#999"/>
  <rect x="646" y="248" width="50" height="12" rx="3" fill="#95BF47" opacity="0.2"/>
  <rect x="646" y="272" width="108" height="8" rx="2" fill="#999"/>
  <rect x="646" y="288" width="50" height="12" rx="3" fill="#95BF47" opacity="0.2"/>
  <rect x="646" y="312" width="108" height="8" rx="2" fill="#999"/>
  <rect x="646" y="328" width="50" height="12" rx="3" fill="#fbbf24" opacity="0.3"/>
  <rect x="646" y="352" width="108" height="8" rx="2" fill="#999"/>
</svg>