<svg xmlns="http://www.w3.org/2000/svg" viewBox="0 0 800 400" fill="none">
  <defs>
    <linearGradient id="bg" x1="0" y1="0" x2="800" y2="400" gradientUnits="userSpaceOnUse">
      <stop offset="0%" stop-color="#0D1B2A"/>
      <stop offset="100%" stop-color="#1B2838"/>
    </linearGradient>
  </defs>
  <rect width="800" height="400" rx="12" fill="url(#bg)"/>
  <!-- Top nav -->
  <rect x="0" y="0" width="800" height="48" rx="12" fill="#0a1420"/>
  <rect x="0" y="12" width="800" height="36" fill="#0a1420"/>
  <rect x="24" y="16" width="90" height="16" rx="3" fill="#3B82F6"/>
  <rect x="160" y="20" width="50" height="8" rx="2" fill="#555"/>
  <rect x="224" y="20" width="60" height="8" rx="2" fill="#555"/>
  <rect x="680" y="14" width="90" height="20" rx="4" fill="#3B82F6"/>
  <!-- Sidebar -->
  <rect x="0" y="48" width="60" height="352" fill="#0f1926"/>
  <rect x="16" y="68" width="28" height="28" rx="6" fill="#3B82F6" opacity="0.3"/>
  <rect x="16" y="108" width="28" height="28" rx="6" fill="#1e2d40"/>
  <rect x="16" y="148" width="28" height="28" rx="6" fill="#1e2d40"/>
  <rect x="16" y="188" width="28" height="28" rx="6" fill="#1e2d40"/>
  <rect x="16" y="228" width="28" height="28" rx="6" fill="#1e2d40"/>
  <!-- Dashboard header -->
  <rect x="80" y="64" width="150" height="14" rx="4" fill="#eee"/>
  <rect x="80" y="86" width="250" height="8" rx="2" fill="#666"/>
  <!-- Status cards row -->
  <rect x="80" y="110" width="160" height="80" rx="8" fill="#162030"/>
  <rect x="96" y="126" width="60" height="8" rx="2" fill="#888"/>
  <text x="96" y="160" fill="#3B82F6" font-size="22" font-weight="bold" font-family="Arial">LLC</text>
  <rect x="96" y="172" width="80" height="6" rx="2" fill="#4ade80" opacity="0.5"/>
  <rect x="260" y="110" width="160" height="80" rx="8" fill="#162030"/>
  <rect x="276" y="126" width="60" height="8" rx="2" fill="#888"/>
  <text x="276" y="160" fill="#4ade80" font-size="22" font-weight="bold" font-family="Arial">Active</text>
  <rect x="440" y="110" width="160" height="80" rx="8" fill="#162030"/>
  <rect x="456" y="126" width="60" height="8" rx="2" fill="#888"/>
  <text x="456" y="160" fill="#3B82F6" font-size="22" font-weight="bold" font-family="Arial">Logo</text>
  <rect x="456" y="172" width="80" height="6" rx="2" fill="#3B82F6" opacity="0.3"/>
  <rect x="620" y="110" width="150" height="80" rx="8" fill="#162030"/>
  <rect x="636" y="126" width="60" height="8" rx="2" fill="#888"/>
  <text x="636" y="160" fill="#eee" font-size="22" font-weight="bold" font-family="Arial">EIN</text>
  <!-- Main content area -->
  <rect x="80" y="210" width="460" height="170" rx="8" fill="#162030"/>
  <rect x="100" y="230" width="100" height="10" rx="3" fill="#eee"/>
  <rect x="100" y="255" width="420" height="1" fill="#2a3a4e"/>
  <!-- Logo preview mockup -->
  <rect x="120" y="275" width="80" height="80" rx="12" fill="#3B82F6" opacity="0.15" stroke="#3B82F6" stroke-width="1"/>
  <text x="160" y="322" text-anchor="middle" fill="#3B82F6" font-size="28" font-weight="bold" font-family="Arial">TB</text>
  <rect x="220" y="280" width="120" height="10" rx="3" fill="#ccc"/>
  <rect x="220" y="300" width="200" height="8" rx="2" fill="#888"/>
  <rect x="220" y="318" width="160" height="8" rx="2" fill="#888"/>
  <rect x="220" y="340" width="100" height="20" rx="4" fill="#3B82F6"/>
  <!-- Right panel -->
  <rect x="560" y="210" width="210" height="170" rx="8" fill="#162030"/>
  <rect x="580" y="230" width="80" height="10" rx="3" fill="#eee"/>
  <rect x="580" y="255" width="170" height="8" rx="2" fill="#4ade80" opacity="0.4"/>
  <rect x="580" y="275" width="170" height="8" rx="2" fill="#4ade80" opacity="0.4"/>
  <rect x="580" y="295" width="170" height="8" rx="2" fill="#4ade80" opacity="0.4"/>
  <rect x="580" y="315" width="170" height="8" rx="2" fill="#4ade80" opacity="0.4"/>
  <rect x="580" y="345" width="170" height="24" rx="6" fill="#3B82F6"/>
</svg>