<svg xmlns="http://www.w3.org/2000/svg" viewBox="0 0 800 400" fill="none">
  <defs>
    <linearGradient id="bg" x1="0" y1="0" x2="800" y2="400" gradientUnits="userSpaceOnUse">
      <stop offset="0%" stop-color="#f0f4f8"/>
      <stop offset="100%" stop-color="#e2e8f0"/>
    </linearGradient>
  </defs>
  <rect width="800" height="400" rx="12" fill="url(#bg)"/>
  <!-- Top nav (WP admin bar) -->
  <rect x="0" y="0" width="800" height="36" rx="12" fill="#1d2327"/>
  <rect x="0" y="12" width="800" height="24" fill="#1d2327"/>
  <circle cx="20" cy="18" r="8" fill="#0073AA"/>
  <rect x="36" y="12" width="60" height="10" rx="2" fill="#0073AA"/>
  <rect x="700" y="12" width="60" height="10" rx="2" fill="#555"/>
  <!-- Admin sidebar -->
  <rect x="0" y="36" width="180" height="364" fill="#23282d"/>
  <rect x="12" y="52" width="156" height="28" rx="4" fill="#0073AA"/>
  <rect x="28" y="60" width="80" height="10" rx="2" fill="white" opacity="0.9"/>
  <rect x="12" y="88" width="156" height="24" rx="2" fill="transparent"/>
  <rect x="28" y="94" width="60" height="8" rx="2" fill="#bbb"/>
  <rect x="12" y="118" width="156" height="24" rx="2" fill="transparent"/>
  <rect x="28" y="124" width="70" height="8" rx="2" fill="#bbb"/>
  <rect x="12" y="148" width="156" height="24" rx="2" fill="transparent"/>
  <rect x="28" y="154" width="50" height="8" rx="2" fill="#bbb"/>
  <rect x="12" y="178" width="156" height="24" rx="2" fill="transparent"/>
  <rect x="28" y="184" width="80" height="8" rx="2" fill="#bbb"/>
  <rect x="12" y="208" width="156" height="24" rx="2" fill="transparent"/>
  <rect x="28" y="214" width="55" height="8" rx="2" fill="#bbb"/>
  <rect x="12" y="248" width="156" height="24" rx="2" fill="transparent"/>
  <rect x="28" y="254" width="90" height="8" rx="2" fill="#bbb"/>
  <rect x="12" y="278" width="156" height="24" rx="2" fill="transparent"/>
  <rect x="28" y="284" width="65" height="8" rx="2" fill="#bbb"/>
  <!-- Main content area -->
  <rect x="200" y="52" width="200" height="18" rx="4" fill="#333"/>
  <!-- Welcome panel -->
  <rect x="200" y="82" width="580" height="80" rx="6" fill="white" stroke="#ddd" stroke-width="1"/>
  <rect x="220" y="98" width="140" height="12" rx="3" fill="#0073AA"/>
  <rect x="220" y="120" width="400" height="8" rx="2" fill="#999"/>
  <rect x="220" y="138" width="80" height="12" rx="3" fill="#0073AA" opacity="0.15"/>
  <rect x="310" y="138" width="80" height="12" rx="3" fill="#0073AA" opacity="0.15"/>
  <!-- At a Glance / Activity -->
  <rect x="200" y="178" width="280" height="200" rx="6" fill="white" stroke="#ddd" stroke-width="1"/>
  <rect x="216" y="194" width="80" height="10" rx="3" fill="#333"/>
  <rect x="216" y="218" width="248" height="1" fill="#eee"/>
  <rect x="216" y="232" width="140" height="8" rx="2" fill="#0073AA"/>
  <rect x="216" y="252" width="120" height="8" rx="2" fill="#0073AA"/>
  <rect x="216" y="272" width="160" height="8" rx="2" fill="#0073AA"/>
  <rect x="216" y="302" width="248" height="1" fill="#eee"/>
  <rect x="216" y="316" width="100" height="8" rx="2" fill="#999"/>
  <rect x="216" y="336" width="130" height="8" rx="2" fill="#999"/>
  <rect x="216" y="356" width="110" height="8" rx="2" fill="#999"/>
  <!-- Quick Draft -->
  <rect x="500" y="178" width="280" height="200" rx="6" fill="white" stroke="#ddd" stroke-width="1"/>
  <rect x="516" y="194" width="80" height="10" rx="3" fill="#333"/>
  <rect x="516" y="218" width="248" height="1" fill="#eee"/>
  <rect x="516" y="232" width="248" height="24" rx="4" fill="#f8f8f8" stroke="#ddd" stroke-width="1"/>
  <rect x="516" y="268" width="248" height="70" rx="4" fill="#f8f8f8" stroke="#ddd" stroke-width="1"/>
  <rect x="516" y="352" width="60" height="20" rx="4" fill="#0073AA"/>
</svg>