<svg xmlns="http://www.w3.org/2000/svg" viewBox="0 0 200 200" width="200" height="200">
  <defs>
    <linearGradient id="bhGrad" x1="0%" y1="0%" x2="100%" y2="100%">
      <stop offset="0%" stop-color="#43A047"/>
      <stop offset="100%" stop-color="#2E7D32"/>
    </linearGradient>
  </defs>
  <!-- Background circle -->
  <circle cx="100" cy="100" r="90" fill="url(#bhGrad)"/>
  <!-- Speech bubble -->
  <path d="M45 55 C45 45 55 35 70 35 L130 35 C145 35 155 45 155 55 L155 105 C155 115 145 125 130 125 L85 125 L60 150 L65 125 L70 125 C55 125 45 115 45 105 Z" fill="white"/>
  <!-- Heart inside bubble -->
  <path d="M100 110 C85 95 60 80 80 60 C90 52 100 62 100 62 C100 62 110 52 120 60 C140 80 115 95 100 110Z" fill="#2E7D32"/>
</svg>